<svg version="1.1" id="Layer_1" xmlns="http://www.w3.org/2000/svg" xmlns:xlink="http://www.w3.org/1999/xlink" x="0px" y="0px"
	 width="100%" viewBox="0 0 500 500" enable-background="new 0 0 500 500" xml:space="preserve">
<path fill="#000000" opacity="1.000000" stroke="none" 
	d="
M230.000000,501.000000 
	C153.333359,501.000000 77.166702,501.000000 1.000041,501.000000 
	C1.000027,334.333405 1.000027,167.666779 1.000014,1.000130 
	C167.666565,1.000087 334.333130,1.000087 500.999756,1.000043 
	C500.999847,167.666519 500.999847,334.333038 500.999939,500.999786 
	C410.833344,501.000000 320.666656,501.000000 230.000000,501.000000 
M210.551651,179.415649 
	C210.551651,179.415649 210.676285,179.482269 210.347000,180.186356 
	C211.118240,182.614532 212.079391,182.285095 214.027740,180.299545 
	C214.485748,181.078415 215.345139,181.858780 215.342270,182.635956 
	C215.289001,197.090836 215.133087,211.545349 214.254196,225.984344 
	C213.509521,225.989212 212.764847,225.994080 211.777359,225.089111 
	C211.752121,216.107101 211.518555,207.118896 211.784454,198.145523 
	C211.930038,193.232269 210.477890,189.686356 206.567551,186.534225 
	C201.675308,182.590607 197.341156,177.954651 192.886749,172.808578 
	C192.804535,171.730804 192.722336,170.653046 192.624161,169.366104 
	C191.194656,169.615417 190.101822,169.806015 188.365051,169.707611 
	C186.250351,168.657883 184.135666,167.608154 181.843643,165.957291 
	C180.555588,166.169403 179.267517,166.381516 177.097473,166.769287 
	C174.403931,166.728058 171.710373,166.686844 168.811325,165.979050 
	C166.869232,166.218613 164.927139,166.458160 162.167892,166.867294 
	C160.783203,166.813156 159.398499,166.759033 157.921585,166.172455 
	C157.276306,166.349976 156.631042,166.527481 155.065140,166.881149 
	C139.714172,166.834915 124.363197,166.788696 108.860100,166.106613 
	C107.568901,166.311508 106.277695,166.516403 104.066467,166.880814 
	C101.953163,166.887222 99.830727,167.021973 97.728546,166.872208 
	C93.856514,166.596313 89.996407,166.153259 86.578224,165.042374 
	C86.486786,164.248413 86.395348,163.454453 86.303909,162.660492 
	C85.925774,162.730438 85.547638,162.800369 85.169502,162.870300 
	C85.408249,163.841949 85.646996,164.813583 85.706551,166.524719 
	C84.976738,167.342880 84.246925,168.161026 83.027832,169.082687 
	C83.180908,169.729630 83.333984,170.376556 83.683350,171.736404 
	C83.935875,178.707275 84.058220,185.687424 84.553688,192.640976 
	C84.649696,193.988327 86.202049,195.231903 87.037125,197.354340 
	C87.289131,198.551605 87.541138,199.748856 88.090515,202.358887 
	C90.024429,199.758087 91.014221,198.426987 92.875648,196.964767 
	C93.321457,197.743454 94.149712,198.519119 94.155930,199.301300 
	C94.255630,211.836151 94.250465,224.371811 93.586273,237.438828 
	C93.405525,245.045105 93.191284,252.651031 93.110191,260.258362 
	C93.103966,260.841614 94.037712,261.434875 94.728416,262.749695 
	C94.664848,263.492493 94.601280,264.235291 93.867195,265.235291 
	C94.090614,267.831299 94.314041,270.427307 94.733284,273.938477 
	C94.733284,281.542877 94.733284,289.147308 94.733284,297.175415 
	C91.162033,297.175415 88.089218,297.175415 84.954712,297.175415 
	C84.954712,307.358582 84.954712,317.104248 84.954712,327.100281 
	C105.277847,327.100281 125.318192,327.100281 145.892258,327.100281 
	C145.892258,320.198120 145.892044,313.581696 145.892319,306.965302 
	C145.892700,297.941559 145.892380,297.945709 136.893753,296.909882 
	C136.613983,296.877655 136.367279,296.558441 136.151855,296.406067 
	C136.151855,285.788239 136.151855,275.213135 136.151855,264.319641 
	C148.936554,264.319641 161.398697,264.070282 173.844391,264.414917 
	C181.095535,264.615692 187.752731,264.131592 193.349228,257.835266 
	C193.863525,257.054871 194.377823,256.274475 195.013794,255.230988 
	C195.109650,255.054276 195.247635,254.921280 196.166031,254.932709 
	C197.099670,254.932709 198.033310,254.932709 199.085205,254.932709 
	C198.651794,253.747894 198.324448,252.853043 198.125275,251.483963 
	C198.507919,251.185913 198.890549,250.887863 200.103546,250.823532 
	C203.247177,251.303299 202.986374,249.085236 203.156219,246.581863 
	C203.456406,246.394455 203.756592,246.207062 204.732544,245.950516 
	C205.545654,244.972961 206.358765,243.995407 207.863693,242.998001 
	C208.324371,242.975082 208.785034,242.952148 209.553513,243.595627 
	C210.072861,246.464676 210.592209,249.333740 211.046814,253.052032 
	C209.804367,255.936035 208.561920,258.820038 207.278229,262.399933 
	C207.094299,264.043060 206.737198,265.688019 206.754379,267.329041 
	C206.871262,278.487030 207.703552,289.681915 207.044144,300.790070 
	C206.474640,310.383759 207.509796,318.490295 216.830139,323.450256 
	C216.946762,323.512299 216.973892,323.742493 217.019165,324.646790 
	C217.793365,327.986420 218.057312,328.134369 220.998917,326.481689 
	C222.334305,326.665741 223.669693,326.849823 225.914032,327.281036 
	C230.452011,327.206451 234.989990,327.131866 239.493347,327.005249 
	C239.493347,327.005249 239.474426,327.064819 240.445435,327.139496 
	C247.298828,326.492706 254.367798,329.802307 261.783600,326.010864 
	C265.539948,322.743713 269.296326,319.476562 273.272491,315.492035 
	C273.729462,314.337524 274.186432,313.182983 275.157288,311.851898 
	C275.008057,310.890839 274.858826,309.929779 274.417206,308.093262 
	C274.417206,305.532471 274.417206,302.971649 274.417206,300.165222 
	C266.873352,300.165222 260.027405,300.165222 252.604599,300.165222 
	C252.714233,302.567871 252.816315,304.804901 252.582077,307.790649 
	C246.709320,312.251617 239.830582,312.178314 232.595200,311.571014 
	C232.394226,310.923370 232.193253,310.275696 231.770294,309.195404 
	C231.650787,309.097382 231.531281,308.999359 231.411789,308.901306 
	C231.565521,309.155273 231.719254,309.409241 231.021957,310.358398 
	C230.086121,308.046417 228.390594,305.748810 228.346634,303.419983 
	C228.161423,293.608032 228.372330,283.784302 228.623413,273.969604 
	C228.875854,264.102264 229.780334,263.313904 239.616440,263.282379 
	C241.946838,263.274902 244.296402,263.149506 246.603607,263.394470 
	C250.346771,263.791809 252.825302,265.424316 252.448486,269.828918 
	C252.273788,271.870819 252.736435,273.967285 252.914642,276.092773 
	C258.713104,276.092773 263.871735,276.092773 269.536835,276.621185 
	C271.852875,277.167053 274.177124,277.732330 274.461823,273.736664 
	C274.553253,270.049133 274.644653,266.361633 274.870056,261.944977 
	C274.327545,261.271973 273.785065,260.598969 272.474945,259.843262 
	C271.962372,259.877533 271.449829,259.911804 270.950500,260.049164 
	C270.950500,260.049164 271.054169,260.055847 271.212067,259.310272 
	C268.369019,253.873703 264.712341,249.079483 258.279266,248.136597 
	C253.938583,247.500397 249.429886,248.010498 244.983154,247.775482 
	C244.983154,247.775482 245.110229,247.580521 244.933823,247.025772 
	C243.946014,247.139999 242.958191,247.254227 241.201141,247.620102 
	C240.143219,247.500763 239.085312,247.381424 237.881592,246.836792 
	C237.244278,246.978577 236.606964,247.120361 235.095963,247.570129 
	C231.076660,247.756744 227.057343,247.943359 222.624084,247.561859 
	C221.330917,247.116806 220.037735,246.671753 219.340286,246.431717 
	C217.950745,247.915314 216.975067,248.957031 215.629898,249.499146 
	C214.834167,249.310318 214.038422,249.121490 212.581818,248.506271 
	C212.562439,246.671188 212.543045,244.836121 213.220932,243.006454 
	C216.532700,244.469574 219.598450,243.822296 222.316528,241.668945 
	C223.089417,241.056625 223.835663,239.796036 223.751526,238.912994 
	C223.685379,238.218781 222.407822,237.364410 221.513885,237.096359 
	C220.463715,236.781464 219.246582,237.023392 217.949356,236.194000 
	C218.008224,234.797913 218.067093,233.401810 218.824661,231.859940 
	C220.685181,229.938034 220.910904,228.250473 217.915955,226.078537 
	C217.990906,216.387787 218.065857,206.697052 218.776047,196.900482 
	C218.571960,195.931259 218.367889,194.962051 217.941284,193.140472 
	C218.010941,191.095886 218.080597,189.051285 218.784088,186.899063 
	C218.576172,185.930374 218.368240,184.961670 217.940231,183.213303 
	C218.017776,182.144699 218.095322,181.076096 218.762695,179.904541 
	C218.432632,179.299286 218.102585,178.694031 216.984360,177.937744 
	C215.664215,177.809998 214.344086,177.682251 213.050201,176.696091 
	C213.037231,173.197906 213.024261,169.699722 213.897018,165.878113 
	C222.141525,165.878113 230.386032,165.878113 239.035858,165.878113 
	C239.035858,169.862183 239.035858,173.476440 238.413391,177.627823 
	C235.676315,177.081818 234.509308,178.001053 234.568588,180.984360 
	C234.680420,186.613922 234.451553,192.250259 233.797318,198.158691 
	C233.988190,199.115677 234.179047,200.072647 234.612427,201.883438 
	C234.564041,204.247360 234.515671,206.611298 233.914139,209.136673 
	C234.121216,210.099106 234.328293,211.061554 234.706863,212.943420 
	C234.717712,219.987167 234.584091,227.036575 234.859451,234.069962 
	C234.915558,235.503326 236.509552,236.876480 237.223068,238.999908 
	C237.526611,239.435333 237.830170,239.870743 238.133713,240.306152 
	C238.303635,239.621765 238.473541,238.937393 239.488510,238.093369 
	C244.611908,238.081070 249.740524,237.922852 254.856964,238.105530 
	C258.539581,238.237000 260.951721,237.371994 260.356232,232.996689 
	C264.067078,232.996689 267.536652,232.996689 271.500885,233.818771 
	C270.817780,239.240036 273.000854,244.985321 269.761902,250.517670 
	C271.068268,251.051743 272.600281,251.678085 274.239380,252.348190 
	C274.239380,244.576706 274.239380,237.531265 273.922089,229.854004 
	C272.951752,229.890930 271.981384,229.927856 270.079010,229.897354 
	C265.730286,229.897354 261.381592,229.897354 257.162384,229.897354 
	C256.943329,232.054718 256.794739,233.517761 255.805649,234.970291 
	C254.970551,235.071533 254.135468,235.172760 252.460510,235.380157 
	C247.639938,235.234756 242.819382,235.089371 237.822876,234.546906 
	C237.657822,234.296814 237.436111,234.116287 236.994446,233.081818 
	C237.019653,227.722397 237.044846,222.362976 237.744476,216.864578 
	C239.622345,215.200241 239.717651,213.853271 236.874878,212.075439 
	C236.918961,202.717102 236.963028,193.358749 237.747620,183.986023 
	C240.770279,183.133255 243.230820,181.879822 242.072830,177.174545 
	C242.025635,175.790970 241.978424,174.407410 242.566910,172.418762 
	C242.449768,170.666656 242.332626,168.914566 242.036896,166.523514 
	C242.450516,163.667999 241.127457,162.949905 238.400696,162.963593 
	C229.540421,163.008118 220.678818,162.787979 211.244110,162.315826 
	C210.626709,162.802307 210.009308,163.288773 209.697754,164.689194 
	C209.589844,169.118591 209.481934,173.547974 208.837433,178.196030 
	C208.829498,178.686432 208.821548,179.176819 208.813599,179.667221 
	C209.360138,179.549561 209.906677,179.431885 210.551651,179.415649 
M304.003174,147.003769 
	C304.003174,147.003769 304.015381,146.969391 303.898224,146.254135 
	C302.433075,145.560135 300.967957,144.866135 298.766998,144.378113 
	C295.899445,144.311295 292.975494,144.141388 291.513336,148.045258 
	C291.346375,148.977127 291.179413,149.908997 290.949707,151.283539 
	C290.949707,151.283539 290.595764,151.556656 290.202698,151.346512 
	C290.068970,151.395645 289.935242,151.444778 289.801514,151.493912 
	C290.068787,151.547897 290.336090,151.601883 291.087677,152.160538 
	C291.384003,153.200714 291.680328,154.240891 291.933807,155.536469 
	C291.933807,155.536469 291.930939,155.795410 291.948944,156.408585 
	C291.942627,156.612961 291.936279,156.817337 291.480804,157.425018 
	C291.838043,157.990601 292.195251,158.556183 292.778351,159.622009 
	C292.778931,159.985947 292.779541,160.349899 292.026550,161.095932 
	C290.182281,166.399551 291.077698,168.096634 297.054413,170.804764 
	C296.929199,172.197784 296.803986,173.590820 296.018158,175.085831 
	C292.814941,177.286835 293.375763,178.880188 297.076538,180.476715 
	C297.368347,180.658203 297.660156,180.839691 298.016937,181.657745 
	C298.343384,182.127914 298.669830,182.598083 299.010010,183.863586 
	C299.064270,184.391190 299.118530,184.918793 299.041107,186.088943 
	C297.691620,188.391754 296.342133,190.694565 294.272278,193.071335 
	C292.541626,195.402176 289.805664,197.553619 289.349152,200.111832 
	C288.842651,202.950394 290.416992,206.160263 291.077240,209.894684 
	C290.584290,210.923264 290.091339,211.951859 288.878021,213.139099 
	C286.126770,216.679916 286.242523,224.262344 289.626923,227.431137 
	C289.826508,228.594467 290.026062,229.757782 289.615723,231.278122 
	C287.077148,232.851868 284.538574,234.425629 281.894745,235.729675 
	C281.811707,235.681427 281.728668,235.633163 281.645630,235.584900 
	C281.763763,235.723282 281.881866,235.861664 282.054016,236.567078 
	C284.421112,238.359360 286.788239,240.151642 289.747528,242.294296 
	C290.471313,243.160294 291.195099,244.026291 291.145996,245.087906 
	C288.426758,246.785217 285.707489,248.482529 282.988251,250.179840 
	C282.363251,250.942200 281.738281,251.704559 281.113312,252.466919 
	C282.537628,254.119843 283.961975,255.772781 285.386292,257.425720 
	C286.445892,257.802734 284.300018,260.274841 283.904114,263.001068 
	C283.596375,265.120026 285.470703,267.555878 286.517029,270.210785 
	C288.607666,266.634888 290.253296,263.820160 292.204102,261.705811 
	C295.077362,262.946503 297.950592,264.187195 301.005646,266.149475 
	C302.881287,276.061768 310.282257,280.134491 322.304565,277.732056 
	C322.906982,277.205139 323.509369,276.678253 324.782379,275.934265 
	C325.009338,275.078796 325.236328,274.223358 325.587372,272.402954 
	C325.723053,272.108398 325.858734,271.813843 326.676300,271.533997 
	C327.115692,271.648010 327.555115,271.762024 328.402405,272.422913 
	C329.602753,272.208191 330.803101,271.993469 332.529114,271.607147 
	C333.051544,271.427094 333.573975,271.247040 334.812653,271.186035 
	C336.811462,269.247833 338.810272,267.309631 340.809082,265.371429 
	C340.443756,264.978973 340.078400,264.586517 339.713074,264.194061 
	C338.601898,264.748718 337.490723,265.303375 336.379578,265.858002 
	C335.922180,265.496796 335.464752,265.135590 335.007355,264.774384 
	C336.401154,262.628601 337.794983,260.482849 340.034241,258.287323 
	C344.379639,259.063477 346.837616,257.482269 347.524445,252.677979 
	C348.171478,253.539581 348.818512,254.401184 349.666656,255.994171 
	C349.714111,256.996124 349.761566,257.998077 349.276794,259.088470 
	C348.942291,259.783936 348.607788,260.479431 348.272919,261.175659 
	C348.991058,261.464569 349.647400,261.728607 350.101471,262.591461 
	C351.067993,263.392914 352.034546,264.194336 352.972961,265.749176 
	C352.981537,266.502686 352.990143,267.256226 352.383423,268.016052 
	C351.683746,267.926605 350.984070,267.837158 349.630768,267.664124 
	C351.115692,268.924225 352.058350,269.724213 353.288971,270.945312 
	C353.844116,271.299042 354.399261,271.652771 355.550903,272.272766 
	C356.839752,274.076660 358.155792,275.118622 360.211334,273.057434 
	C360.912354,272.354492 362.138458,272.175201 363.557434,272.346191 
	C364.749268,273.097046 366.153015,274.697968 367.098938,274.462189 
	C373.753845,272.803406 381.404877,272.298218 386.684357,268.539978 
	C398.671509,260.006989 403.297791,247.176498 402.624054,232.559280 
	C396.225342,229.625626 396.504730,229.699249 398.279663,222.964432 
	C399.873810,216.915558 400.949860,210.707733 401.840973,204.510559 
	C402.086639,202.801666 400.853333,200.880112 400.032013,198.179306 
	C401.052979,196.380966 404.020630,193.586014 403.844299,191.005951 
	C403.325775,183.418961 406.572937,177.116394 408.984650,170.451157 
	C410.877350,165.220337 409.908936,160.445953 406.774872,155.850723 
	C405.205566,153.549713 403.770050,153.700195 401.188538,155.101364 
	C400.791168,156.064377 400.393799,157.027374 399.863068,158.669312 
	C394.917786,164.472702 389.972504,170.276093 384.774261,175.458481 
	C383.845123,174.639221 382.915955,173.819962 381.558716,172.998276 
	C381.256012,172.966309 381.012817,172.828964 380.918793,171.767120 
	C380.413544,170.935806 379.908264,170.104492 379.402985,169.273193 
	C378.897156,169.989624 378.391296,170.706070 377.121460,171.294250 
	C371.752289,169.763748 366.383118,168.233246 360.936768,166.162598 
	C360.296478,166.089890 359.656189,166.017197 358.342224,166.031296 
	C357.897827,165.952484 357.453461,165.873672 356.918213,165.239456 
	C356.276550,165.441589 355.634918,165.643723 354.237030,166.039520 
	C352.241669,166.593994 350.246307,167.148453 348.142120,167.032623 
	C347.790833,166.647644 347.439545,166.262665 347.088196,165.877670 
	C346.728455,166.957748 346.368713,168.037827 345.866730,169.657471 
	C345.213165,170.298233 344.559601,170.939011 342.599670,171.113800 
	C342.156799,170.981445 341.713898,170.849091 341.400269,169.997330 
	C341.259491,168.080185 341.118713,166.163025 340.924530,163.564621 
	C339.946228,163.631393 338.967896,163.698166 337.247742,163.896057 
	C336.504303,163.803619 335.760834,163.711166 334.885071,163.032547 
	C333.917480,163.232391 332.949860,163.432236 331.081543,163.862015 
	C327.255524,164.346878 323.429535,164.831726 319.430664,164.252594 
	C317.997894,163.482285 316.565125,162.711975 315.039978,161.929413 
	C315.039978,161.929413 315.071808,161.841843 315.046265,161.072372 
	C313.844391,159.428467 312.642487,157.784561 310.912964,155.832321 
	C310.624573,155.315155 310.336151,154.797989 310.804626,153.987320 
	C311.241028,152.674759 311.677429,151.362213 312.425171,149.113251 
	C310.300659,150.310806 309.222870,150.918335 307.682495,151.323608 
	C307.449249,150.897476 307.215973,150.471344 306.999237,149.299652 
	C306.010468,148.527069 305.021729,147.754486 304.003174,147.003769 
M414.189453,210.233276 
	C412.013672,207.396332 409.837891,204.559402 407.417023,201.402878 
	C405.535278,210.326706 403.767242,218.711258 401.934814,227.401077 
	C406.846771,228.225189 407.269165,231.642075 407.027191,235.590393 
	C406.370239,246.310577 402.920319,256.130096 396.873505,264.872650 
	C391.545868,272.575409 384.529541,277.870361 374.407684,277.314148 
	C372.429108,277.205444 370.390625,277.376770 368.439636,277.740326 
	C364.020905,278.563751 359.757629,279.295197 355.463715,276.844666 
	C354.149414,276.094574 352.045410,276.728271 349.706482,276.728271 
	C347.574829,273.669128 343.520355,272.622101 339.632507,273.888153 
	C331.374054,276.577545 323.361176,280.020966 314.389587,283.486755 
	C324.330505,291.271637 327.730377,301.214996 325.108948,312.946381 
	C322.524078,324.514313 313.349396,330.930573 304.092560,338.000885 
	C305.899628,338.324829 306.985931,338.610901 308.088470,338.703583 
	C327.006866,340.294250 345.276062,337.201080 362.722382,330.044220 
	C395.937347,316.418610 418.858765,293.677917 424.551361,256.852112 
	C427.088776,240.437408 426.624451,224.284897 414.189453,210.233276 
M205.793030,249.328644 
	C205.710495,250.003983 205.627945,250.679321 205.545410,251.354660 
	C206.089706,251.262634 206.634003,251.170624 207.178299,251.078598 
	C206.921066,250.438904 206.663849,249.799210 205.793030,249.328644 
M246.958206,307.184448 
	C246.561920,307.277405 246.165634,307.370361 245.769348,307.463348 
	C245.855331,307.582062 245.956528,307.810791 246.024796,307.801331 
	C246.427078,307.745697 246.821701,307.634644 246.958206,307.184448 
M226.041061,243.815048 
	C226.436752,243.722290 226.832428,243.629532 227.228119,243.536774 
	C227.142212,243.418320 227.041138,243.190018 226.972885,243.199463 
	C226.571182,243.254929 226.177124,243.365799 226.041061,243.815048 
M249.640686,306.475220 
	C249.848312,306.529114 250.055954,306.582977 250.263580,306.636871 
	C250.130188,306.505005 249.996796,306.373138 249.640686,306.475220 
M348.359344,163.525085 
	C348.151794,163.471237 347.944214,163.417389 347.736664,163.363541 
	C347.869995,163.495300 348.003296,163.627060 348.359344,163.525085 
M247.516266,162.419083 
	C247.516266,162.419083 247.576782,162.523544 247.516266,162.419083 
M232.515579,306.413727 
	C232.515579,306.413727 232.580582,306.523010 232.515579,306.413727 
M277.581909,303.516296 
	C277.581909,303.516296 277.476105,303.577911 277.581909,303.516296 
M253.483704,297.584198 
	C253.483704,297.584198 253.422256,297.478851 253.483704,297.584198 
M389.415497,166.482941 
	C389.415497,166.482941 389.522888,166.419083 389.415497,166.482941 
z"/>
<path fill="#F9F9F9" opacity="1.000000" stroke="none" 
	d="
M334.096405,271.066986 
	C333.573975,271.247040 333.051544,271.427094 332.022034,271.523499 
	C330.341461,271.585236 329.167969,271.730621 327.994507,271.876038 
	C327.555115,271.762024 327.115692,271.648010 326.080078,271.298004 
	C322.164459,270.025940 318.845093,268.989868 315.512848,267.973450 
	C315.500000,267.993073 315.525879,267.960510 315.280334,267.685120 
	C313.405579,265.911987 311.776337,264.414246 309.944031,262.729797 
	C308.637177,263.818726 307.331726,264.906525 305.682922,265.917053 
	C303.834320,265.702454 302.329102,265.565155 300.823853,265.427856 
	C297.950592,264.187195 295.077362,262.946503 292.190948,261.067261 
	C291.346344,258.488434 290.514923,256.548187 289.562744,254.326126 
	C290.166138,253.841309 291.132782,253.064651 291.227264,252.988754 
	C291.508331,249.698425 291.713623,247.295364 291.918884,244.892303 
	C291.195099,244.026291 290.471313,243.160294 289.604248,241.777374 
	C290.657959,240.561020 291.854950,239.861618 292.998047,239.193680 
	C292.060059,236.394867 291.142822,233.657990 290.225616,230.921112 
	C290.026062,229.757782 289.826508,228.594467 289.391968,226.740906 
	C289.304108,221.693924 289.451263,217.337173 289.598389,212.980438 
	C290.091339,211.951859 290.584290,210.923264 291.383301,209.338104 
	C293.555023,205.175537 295.420685,201.569534 297.286316,197.963531 
	C297.005707,197.810898 296.725098,197.658264 296.444489,197.505630 
	C295.754974,198.068329 295.065460,198.631012 293.782227,199.678253 
	C294.264740,197.015030 294.628693,195.006210 294.992645,192.997375 
	C296.342133,190.694565 297.691620,188.391754 299.366333,185.608521 
	C299.850586,184.756195 300.009613,184.384262 300.527039,184.012573 
	C303.100739,182.653351 305.516388,181.534332 307.492584,179.887863 
	C312.720520,175.532242 311.717682,166.053970 305.553711,161.729355 
	C303.166595,156.689682 300.989502,151.956696 298.989563,146.930008 
	C299.526703,146.364166 299.886719,146.092041 300.579590,145.876343 
	C301.946777,146.278305 302.981079,146.623856 304.015381,146.969391 
	C304.015381,146.969391 304.003174,147.003769 304.104065,147.296997 
	C305.130890,148.408554 306.056793,149.226883 306.982697,150.045212 
	C307.215973,150.471344 307.449249,150.897476 307.981445,151.702866 
	C308.869537,152.815018 309.458649,153.547928 310.047729,154.280823 
	C310.336151,154.797989 310.624573,155.315155 311.281494,156.323944 
	C312.790619,158.490982 313.931213,160.166412 315.071808,161.841858 
	C315.071808,161.841843 315.039978,161.929413 315.099365,162.284912 
	C316.172913,164.308792 316.583130,166.980255 319.603516,165.316589 
	C323.429535,164.831726 327.255524,164.346878 331.905853,163.841583 
	C333.492584,163.753693 334.254974,163.686203 335.017395,163.618729 
	C335.760834,163.711166 336.504303,163.803619 337.978821,163.957703 
	C339.465881,164.094849 340.221924,164.170364 340.977936,164.245880 
	C341.118713,166.163025 341.259491,168.080185 341.050415,170.511932 
	C339.627136,173.308640 338.553680,175.590714 337.186920,178.002838 
	C333.165710,185.311905 329.357727,192.451340 325.771088,199.700256 
	C324.962769,201.333954 324.926086,203.349442 324.534210,205.189163 
	C325.012756,205.308609 325.491302,205.428055 325.969849,205.547501 
	C330.622101,196.355301 335.274384,187.163101 340.152893,177.713898 
	C341.554810,175.497864 342.730438,173.538818 343.906067,171.579788 
	C344.559601,170.939011 345.213165,170.298233 346.211121,169.339523 
	C347.120636,168.582031 347.685791,168.142487 348.250946,167.702942 
	C350.246307,167.148453 352.241669,166.593994 354.947266,166.043304 
	C356.108032,165.963028 356.558563,165.878937 357.009064,165.794861 
	C357.453461,165.873672 357.897827,165.952484 358.853271,166.219330 
	C359.914185,166.505829 360.464081,166.604279 361.013947,166.702728 
	C366.383118,168.233246 371.752289,169.763748 377.738708,171.581772 
	C379.180328,172.108276 380.004730,172.347260 380.829132,172.586243 
	C381.012817,172.828964 381.256012,172.966309 381.811676,173.367828 
	C380.014496,176.078995 377.964355,178.420578 375.914215,180.762177 
	C376.158691,181.124817 376.403198,181.487442 376.647675,181.850082 
	C379.440857,179.926544 382.234039,178.003006 385.027222,176.079468 
	C389.972504,170.276093 394.917786,164.472702 400.221375,158.217667 
	C401.005096,156.841736 401.430542,155.917435 401.855957,154.993134 
	C403.770050,153.700195 405.205566,153.549713 406.774872,155.850723 
	C409.908936,160.445953 410.877350,165.220337 408.984650,170.451157 
	C406.572937,177.116394 403.325775,183.418961 403.844299,191.005951 
	C404.020630,193.586014 401.052979,196.380966 400.032013,198.179306 
	C400.853333,200.880112 402.086639,202.801666 401.840973,204.510559 
	C400.949860,210.707733 399.873810,216.915558 398.279663,222.964432 
	C396.504730,229.699249 396.225342,229.625626 402.624054,232.559280 
	C403.297791,247.176498 398.671509,260.006989 386.684357,268.539978 
	C381.404877,272.298218 373.753845,272.803406 367.098938,274.462189 
	C366.153015,274.697968 364.749268,273.097046 363.330383,271.697266 
	C361.748291,268.686462 360.393311,266.324585 358.716614,263.815735 
	C356.950928,263.074799 355.506866,262.480774 354.107422,261.866150 
	C354.152039,261.845520 354.165466,261.748169 354.147339,261.398499 
	C352.689148,260.365875 351.249084,259.682953 349.809021,259.000031 
	C349.761566,257.998077 349.714111,256.996124 349.665985,255.237289 
	C349.258667,252.661179 348.851990,250.841934 348.445312,249.022705 
	C347.983154,249.095306 347.520996,249.167923 347.058838,249.240524 
	C346.986572,250.439224 346.914276,251.637924 346.842010,252.836624 
	C346.837616,257.482269 344.379639,259.063477 339.270081,258.158142 
	C330.686401,262.245087 329.004028,267.219482 334.096405,271.066986 
M324.001740,250.715759 
	C324.277771,250.135681 324.553802,249.555603 324.669403,249.312729 
	C316.491302,247.260818 308.420990,245.235962 300.064819,243.139374 
	C303.060638,248.792877 305.795074,254.084518 308.712891,259.273041 
	C309.033722,259.843536 310.741669,260.327057 311.237701,259.996857 
	C315.434875,257.202728 319.499939,254.210083 324.001740,250.715759 
M344.016907,217.062439 
	C343.535217,216.471481 343.053558,215.880539 342.203491,214.837631 
	C340.324188,218.804291 338.688873,222.255920 337.021332,225.775620 
	C339.310913,225.119949 341.696777,223.556442 343.121338,224.182022 
	C349.097809,226.806564 353.380737,223.610809 358.592926,220.861145 
	C354.001068,217.921677 350.302399,214.304688 344.016907,217.062439 
M300.768768,211.636887 
	C303.094238,213.542831 305.419739,215.448776 307.815643,217.412415 
	C311.334564,207.878326 309.745178,206.237503 298.220703,207.255615 
	C298.985138,208.523590 299.717621,209.738571 300.768768,211.636887 
z"/>
<path fill="#020202" opacity="1.000000" stroke="none" 
	d="
M209.245712,242.929230 
	C208.785034,242.952148 208.324371,242.975082 207.500198,242.672363 
	C206.754517,240.952606 206.372345,239.558517 205.990173,238.164398 
	C204.997192,238.953613 204.004211,239.742828 202.785492,240.651627 
	C202.282867,241.185074 202.005981,241.598938 201.569687,242.091736 
	C201.212845,242.318420 201.079803,242.510742 200.690903,242.883102 
	C196.479309,246.884277 192.353027,250.546112 188.768631,254.678040 
	C185.721375,258.190796 182.228424,259.170776 177.762253,259.095856 
	C163.945343,258.864136 150.122833,258.951904 136.302490,258.956177 
	C134.365601,258.956757 132.428787,259.184021 130.328018,259.316711 
	C130.328018,273.717407 130.328018,287.625061 130.328018,301.837189 
	C133.434692,302.022736 136.318130,302.194977 139.215881,302.368042 
	C139.215881,309.127411 139.215881,315.393036 139.215881,321.815765 
	C122.597649,321.815765 106.223862,321.815765 90.014069,321.815765 
	C90.014069,315.116272 90.014069,308.721863 90.014069,301.908905 
	C93.520035,301.908905 96.617661,301.908905 99.638138,301.908905 
	C99.638138,265.042236 99.638138,228.609741 99.638138,191.743927 
	C96.320358,191.575027 93.235062,191.417953 89.885704,191.247437 
	C89.885704,184.774475 89.885704,178.548935 89.885704,172.287842 
	C119.067871,172.287842 148.028641,172.287842 177.038116,172.555176 
	C177.727798,172.632858 178.368790,172.443222 179.415070,172.165726 
	C181.942856,172.592300 184.648148,172.455856 186.081802,173.739563 
	C190.973831,178.119904 195.418289,183.000107 200.023743,188.050232 
	C200.230713,189.090530 200.447479,189.770172 200.664246,190.449829 
	C201.141739,190.217377 201.619232,189.984909 202.401581,189.895584 
	C204.465652,192.357742 206.224869,194.676743 207.860291,197.360123 
	C207.797180,200.824890 207.857864,203.925262 207.806061,207.412872 
	C207.564590,214.542938 207.283081,221.289154 207.432083,228.025848 
	C207.462799,229.414841 209.098465,230.768326 209.993011,232.490051 
	C209.962357,233.779297 209.933060,234.716675 209.787216,236.048065 
	C209.529022,238.604446 209.387360,240.766846 209.245712,242.929230 
M177.723557,214.502487 
	C177.728638,212.173889 177.743210,209.845276 177.736984,207.516708 
	C177.721069,201.559814 171.202805,192.484894 165.267929,192.153992 
	C153.739594,191.511185 142.150070,191.965851 130.366837,191.965851 
	C130.366837,207.380081 130.366837,222.591629 130.366837,238.809982 
	C140.760010,238.809982 150.875519,238.846527 160.990540,238.792847 
	C165.324203,238.769836 168.647308,236.710678 172.088547,234.054489 
	C178.618271,229.014404 177.811722,222.252090 177.723557,214.502487 
M206.221603,235.531570 
	C205.840851,235.405670 205.464722,235.259308 205.075378,235.171417 
	C204.999008,235.154190 204.871567,235.363129 204.767670,235.467758 
	C205.148407,235.593475 205.529129,235.719208 206.221603,235.531570 
M95.516190,187.419418 
	C95.516190,187.419418 95.576210,187.523087 95.516190,187.419418 
M101.418678,189.484665 
	C101.418678,189.484665 101.522400,189.424210 101.418678,189.484665 
z"/>
<path fill="#FAFAFA" opacity="1.000000" stroke="none" 
	d="
M414.383575,210.539749 
	C426.624451,224.284897 427.088776,240.437408 424.551361,256.852112 
	C418.858765,293.677917 395.937347,316.418610 362.722382,330.044220 
	C345.276062,337.201080 327.006866,340.294250 308.088470,338.703583 
	C306.985931,338.610901 305.899628,338.324829 304.092560,338.000885 
	C313.349396,330.930573 322.524078,324.514313 325.108948,312.946381 
	C327.730377,301.214996 324.330505,291.271637 314.389587,283.486755 
	C323.361176,280.020966 331.374054,276.577545 339.632507,273.888153 
	C343.520355,272.622101 347.574829,273.669128 349.706482,276.728271 
	C352.045410,276.728271 354.149414,276.094574 355.463715,276.844666 
	C359.757629,279.295197 364.020905,278.563751 368.439636,277.740326 
	C370.390625,277.376770 372.429108,277.205444 374.407684,277.314148 
	C384.529541,277.870361 391.545868,272.575409 396.873505,264.872650 
	C402.920319,256.130096 406.370239,246.310577 407.027191,235.590393 
	C407.269165,231.642075 406.846771,228.225189 401.934814,227.401077 
	C403.767242,218.711258 405.535278,210.326706 407.417023,201.402878 
	C409.837891,204.559402 412.013672,207.396332 414.383575,210.539749 
z"/>
<path fill="#EAEAEA" opacity="1.000000" stroke="none" 
	d="
M176.989410,172.287842 
	C148.028641,172.287842 119.067871,172.287842 89.885704,172.287842 
	C89.885704,178.548935 89.885704,184.774475 89.885704,191.247437 
	C93.235062,191.417953 96.320358,191.575027 99.638138,191.743927 
	C99.638138,228.609741 99.638138,265.042236 99.638138,301.908905 
	C96.617661,301.908905 93.520035,301.908905 90.014069,301.908905 
	C90.014069,308.721863 90.014069,315.116272 90.014069,321.815765 
	C106.223862,321.815765 122.597649,321.815765 139.215881,321.815765 
	C139.215881,315.393036 139.215881,309.127411 139.215881,302.368042 
	C136.318130,302.194977 133.434692,302.022736 130.328018,301.837189 
	C130.328018,287.625061 130.328018,273.717407 130.328018,259.316711 
	C132.428787,259.184021 134.365601,258.956757 136.302490,258.956177 
	C150.122833,258.951904 163.945343,258.864136 177.762253,259.095856 
	C182.228424,259.170776 185.721375,258.190796 188.768631,254.678040 
	C192.353027,250.546112 196.479309,246.884277 200.941833,242.947906 
	C201.585083,242.589096 201.657089,242.300949 201.729080,242.012817 
	C202.005981,241.598938 202.282867,241.185074 203.158920,240.576355 
	C204.324356,241.103287 205.386246,241.853668 205.346619,242.540497 
	C205.278519,243.721085 204.523483,244.862045 204.056778,246.019653 
	C203.756592,246.207062 203.456406,246.394455 202.772690,246.905212 
	C201.350494,248.348969 200.311844,249.469376 199.273178,250.589798 
	C198.890549,250.887863 198.507919,251.185913 197.747162,251.831894 
	C196.721954,253.063889 196.074860,253.947937 195.427750,254.831985 
	C195.247635,254.921280 195.109650,255.054276 194.644501,255.511124 
	C193.700897,256.471008 193.126556,257.150726 192.552231,257.830475 
	C187.752731,264.131592 181.095535,264.615692 173.844391,264.414917 
	C161.398697,264.070282 148.936554,264.319641 136.151855,264.319641 
	C136.151855,275.213135 136.151855,285.788239 136.151855,296.406067 
	C136.367279,296.558441 136.613983,296.877655 136.893753,296.909882 
	C145.892380,297.945709 145.892700,297.941559 145.892319,306.965302 
	C145.892044,313.581696 145.892258,320.198120 145.892258,327.100281 
	C125.318192,327.100281 105.277847,327.100281 84.954712,327.100281 
	C84.954712,317.104248 84.954712,307.358582 84.954712,297.175415 
	C88.089218,297.175415 91.162033,297.175415 94.733284,297.175415 
	C94.733284,289.147308 94.733284,281.542877 94.738068,273.043335 
	C94.674477,269.758148 94.606094,267.368103 94.537704,264.978088 
	C94.601280,264.235291 94.664848,263.492493 94.733879,261.926514 
	C94.582619,253.038010 94.425896,244.972656 94.269173,236.907303 
	C94.250465,224.371811 94.255630,211.836151 94.155930,199.301300 
	C94.149712,198.519119 93.321457,197.743454 92.052200,196.862442 
	C89.846703,196.681198 88.464661,196.602264 87.082619,196.523346 
	C86.202049,195.231903 84.649696,193.988327 84.553688,192.640976 
	C84.058220,185.687424 83.935875,178.707275 83.729424,171.048553 
	C83.689369,169.900208 83.603241,169.439682 83.517113,168.979172 
	C84.246925,168.161026 84.976738,167.342880 85.828178,166.101807 
	C85.949806,165.678909 86.131325,165.779877 86.131325,165.779877 
	C89.996407,166.153259 93.856514,166.596313 97.728546,166.872208 
	C99.830727,167.021973 101.953163,166.887222 104.920792,166.903564 
	C106.854149,166.865036 107.933189,166.803757 109.012230,166.742477 
	C124.363197,166.788696 139.714172,166.834915 155.859253,166.885727 
	C157.106842,166.828506 157.560333,166.766708 158.013809,166.704910 
	C159.398499,166.759033 160.783203,166.813156 163.000824,166.873352 
	C165.561462,166.801483 167.289139,166.723541 169.016830,166.645599 
	C171.710373,166.686844 174.403931,166.728058 177.936462,166.772217 
	C179.857285,166.702896 180.939133,166.630661 182.020966,166.558426 
	C184.135666,167.608154 186.250351,168.657883 188.789246,170.168823 
	C190.397644,171.625885 191.581863,172.621719 192.766083,173.617569 
	C197.341156,177.954651 201.675308,182.590607 206.567551,186.534225 
	C210.477890,189.686356 211.930038,193.232269 211.784454,198.145523 
	C211.518555,207.118896 211.752121,216.107101 211.765533,225.926010 
	C211.167282,228.554672 210.580841,230.346436 209.994385,232.138184 
	C209.098465,230.768326 207.462799,229.414841 207.432083,228.025848 
	C207.283081,221.289154 207.564590,214.542938 208.096024,207.131592 
	C208.327011,203.307297 208.155548,200.151520 207.984100,196.995743 
	C206.224869,194.676743 204.465652,192.357742 202.312683,189.601562 
	C201.290482,188.672775 200.662003,188.181168 200.033539,187.689575 
	C195.418289,183.000107 190.973831,178.119904 186.081802,173.739563 
	C184.648148,172.455856 181.942856,172.592300 179.080475,172.080261 
	C177.890167,172.151031 177.439789,172.219437 176.989410,172.287842 
z"/>
<path fill="#0A0A0A" opacity="1.000000" stroke="none" 
	d="
M273.052704,316.209412 
	C269.296326,319.476562 265.539948,322.743713 261.526550,325.623230 
	C261.427521,324.985809 261.725067,324.722198 261.702026,324.490509 
	C261.681427,324.283600 261.299225,323.940430 261.089325,323.949585 
	C254.057892,324.255585 247.026810,324.577759 240.003433,325.020905 
	C239.784973,325.034698 239.648895,326.354095 239.474426,327.064819 
	C239.474426,327.064819 239.493347,327.005249 239.603363,326.713440 
	C239.352554,326.259735 238.991714,326.097870 238.613861,325.525635 
	C238.067245,325.080658 237.537613,325.046051 236.554352,324.915802 
	C232.387924,324.914246 228.675110,325.008362 224.643906,324.962341 
	C220.837250,322.414429 217.359604,319.991089 213.857452,317.603729 
	C210.881577,315.575104 209.796753,312.963806 209.851669,309.217651 
	C210.082367,293.482574 209.946167,277.742065 209.969345,261.703613 
	C209.676666,261.428528 209.358963,261.453461 208.761292,261.561584 
	C208.094040,261.664520 207.706772,261.684296 207.319489,261.704041 
	C208.561920,258.820038 209.804367,255.936035 211.227386,252.451752 
	C211.924286,251.538269 212.440643,251.225067 213.157272,251.170929 
	C214.238159,250.952911 215.118774,250.475830 215.999390,249.998749 
	C216.975067,248.957031 217.950745,247.915314 219.340286,246.431717 
	C220.037735,246.671753 221.330917,247.116806 222.673126,248.203949 
	C222.594498,249.096237 222.301773,249.431686 222.376892,249.577164 
	C222.497406,249.810516 222.862076,250.059479 223.122452,250.058273 
	C230.737061,250.023209 238.351562,249.957916 246.417999,249.982056 
	C254.657516,248.934082 261.255737,251.159348 266.730011,256.879547 
	C267.947906,258.152191 269.601288,259.008087 271.054169,260.055847 
	C271.054169,260.055847 270.950500,260.049164 271.069305,260.462341 
	C271.188110,265.164978 271.188110,269.454376 271.188110,273.663879 
	C265.679749,273.663879 260.594757,273.663879 255.596436,273.663879 
	C255.257294,272.445312 254.848389,271.525818 254.761353,270.576782 
	C254.024933,262.545227 251.740250,260.307007 243.859070,260.102844 
	C241.697220,260.046906 239.530243,260.075439 237.368454,260.148773 
	C229.166718,260.427002 225.894669,263.605347 225.857620,271.870453 
	C225.809128,282.687012 225.881744,293.509705 226.224442,304.319550 
	C226.352829,308.368896 226.596497,312.865509 232.343842,314.239502 
	C236.890076,314.342560 241.116348,313.852936 245.272812,314.199829 
	C250.724976,314.654877 253.673508,312.356476 255.040039,306.918579 
	C255.380493,305.163666 255.517197,303.742432 255.646469,302.398346 
	C261.079895,302.398346 266.135620,302.398346 271.864594,302.398346 
	C271.579193,307.122986 271.314728,311.501099 271.030304,316.209412 
	C271.153839,316.209412 272.103271,316.209412 273.052704,316.209412 
z"/>
<path fill="#BDBDBD" opacity="1.000000" stroke="none" 
	d="
M231.992828,314.018951 
	C226.596497,312.865509 226.352829,308.368896 226.224442,304.319550 
	C225.881744,293.509705 225.809128,282.687012 225.857620,271.870453 
	C225.894669,263.605347 229.166718,260.427002 237.368454,260.148773 
	C239.530243,260.075439 241.697220,260.046906 243.859070,260.102844 
	C251.740250,260.307007 254.024933,262.545227 254.761353,270.576782 
	C254.848389,271.525818 255.257294,272.445312 255.596436,273.663879 
	C260.594757,273.663879 265.679749,273.663879 271.188110,273.663879 
	C271.188110,269.454376 271.188110,265.164978 271.062683,260.410828 
	C271.449829,259.911804 271.962372,259.877533 272.822327,260.225952 
	C273.691803,261.297119 274.213928,261.985596 274.736053,262.674103 
	C274.644653,266.361633 274.553253,270.049133 274.289917,274.248413 
	C272.422150,275.204376 270.726288,275.648590 269.030396,276.092773 
	C263.871735,276.092773 258.713104,276.092773 252.914642,276.092773 
	C252.736435,273.967285 252.273788,271.870819 252.448486,269.828918 
	C252.825302,265.424316 250.346771,263.791809 246.603607,263.394470 
	C244.296402,263.149506 241.946838,263.274902 239.616440,263.282379 
	C229.780334,263.313904 228.875854,264.102264 228.623413,273.969604 
	C228.372330,283.784302 228.161423,293.608032 228.346634,303.419983 
	C228.390594,305.748810 230.086121,308.046417 231.470917,309.993530 
	C231.919876,309.628632 231.992279,309.628052 231.992279,309.628052 
	C232.193253,310.275696 232.394226,310.923370 232.704987,312.114990 
	C232.540787,313.112305 232.266800,313.565643 231.992828,314.018951 
z"/>
<path fill="#F1F1F1" opacity="1.000000" stroke="none" 
	d="
M218.125946,232.005722 
	C218.067093,233.401810 218.008224,234.797913 217.790985,236.764069 
	C217.462997,237.414124 217.293381,237.494141 216.963120,237.194580 
	C216.068512,236.491150 215.334549,236.167282 214.768356,235.423798 
	C214.956985,232.002762 214.977875,229.001343 214.998749,225.999939 
	C215.133087,211.545349 215.289001,197.090836 215.342270,182.635956 
	C215.345139,181.858780 214.485748,181.078415 213.345840,180.219864 
	C212.001389,179.920868 211.338837,179.701569 210.676285,179.482269 
	C210.676285,179.482269 210.551651,179.415649 210.308670,179.153198 
	C209.835144,178.586273 209.604584,178.281815 209.374023,177.977371 
	C209.481934,173.547974 209.589844,169.118591 209.888199,164.222794 
	C210.658340,163.394165 211.238022,163.031952 211.817719,162.669739 
	C220.678818,162.787979 229.540421,163.008118 238.400696,162.963593 
	C241.127457,162.949905 242.450516,163.667999 241.920715,167.149521 
	C241.846771,169.524963 241.888992,171.274399 241.931213,173.023834 
	C241.978424,174.407410 242.025635,175.790970 241.714630,177.691681 
	C240.577988,178.323822 239.799530,178.438843 239.078308,178.312729 
	C239.171402,177.737595 239.138168,177.410629 239.035858,177.090698 
	C239.035858,173.476440 239.035858,169.862183 239.035858,165.878113 
	C230.386032,165.878113 222.141525,165.878113 213.040192,166.040863 
	C211.109451,170.087509 209.531906,174.008698 213.023941,177.554489 
	C214.344086,177.682251 215.664215,177.809998 217.372406,178.344727 
	C217.897919,179.170319 218.035385,179.588898 218.172852,180.007492 
	C218.095322,181.076096 218.017776,182.144699 217.929779,183.970062 
	C217.996292,185.486771 218.073273,186.246735 218.150269,187.006699 
	C218.080597,189.051285 218.010941,191.095886 217.928497,193.932373 
	C217.990738,195.484955 218.065765,196.245621 218.140808,197.006302 
	C218.065857,206.697052 217.990906,216.387787 217.904266,226.943024 
	C217.970367,229.206924 218.048157,230.606323 218.125946,232.005722 
z"/>
<path fill="#DBDBDB" opacity="1.000000" stroke="none" 
	d="
M238.724625,177.359253 
	C239.138168,177.410629 239.171402,177.737595 238.706299,178.498871 
	C237.853729,180.617569 237.430405,182.308990 237.007080,184.000412 
	C236.963028,193.358749 236.918961,202.717102 236.865753,212.929779 
	C236.927765,214.857269 236.998901,215.930405 237.070038,217.003555 
	C237.044846,222.362976 237.019653,227.722397 237.015854,233.831055 
	C237.357788,234.701508 237.678299,234.822723 237.998810,234.943970 
	C242.819382,235.089371 247.639938,235.234756 252.923187,235.695160 
	C254.472641,235.667038 255.559402,235.323914 256.646179,234.980804 
	C256.794739,233.517761 256.943329,232.054718 257.162384,229.897354 
	C261.381592,229.897354 265.730286,229.897354 270.674194,230.267410 
	C272.190430,230.843994 273.111481,231.050522 273.823944,231.462250 
	C272.745636,232.110535 271.875946,232.553619 271.006226,232.996704 
	C267.536652,232.996689 264.067078,232.996689 260.356232,232.996689 
	C260.951721,237.371994 258.539581,238.237000 254.856964,238.105530 
	C249.740524,237.922852 244.611908,238.081070 238.860779,238.105377 
	C237.936005,238.078735 237.656525,238.132080 237.394623,238.277405 
	C236.509552,236.876480 234.915558,235.503326 234.859451,234.069962 
	C234.584091,227.036575 234.717712,219.987167 234.715210,212.106171 
	C234.638123,210.504349 234.552704,209.739792 234.467285,208.975220 
	C234.515671,206.611298 234.564041,204.247360 234.620789,201.157349 
	C234.540848,199.582108 234.452560,198.732941 234.364273,197.883774 
	C234.451553,192.250259 234.680420,186.613922 234.568588,180.984360 
	C234.509308,178.001053 235.676315,177.081818 238.724625,177.359253 
z"/>
<path fill="#BDBDBD" opacity="1.000000" stroke="none" 
	d="
M209.944321,262.003571 
	C209.946167,277.742065 210.082367,293.482574 209.851669,309.217651 
	C209.796753,312.963806 210.881577,315.575104 213.857452,317.603729 
	C217.359604,319.991089 220.837250,322.414429 224.651123,325.284241 
	C224.986191,326.175476 224.995636,326.604706 225.005081,327.033905 
	C223.669693,326.849823 222.334305,326.665741 220.406067,326.227661 
	C218.889740,325.280518 217.966263,324.587341 217.042786,323.894196 
	C216.973892,323.742493 216.946762,323.512299 216.830139,323.450256 
	C207.509796,318.490295 206.474640,310.383759 207.044144,300.790070 
	C207.703552,289.681915 206.871262,278.487030 206.754379,267.329041 
	C206.737198,265.688019 207.094299,264.043060 207.298859,262.052002 
	C207.706772,261.684296 208.094040,261.664520 208.869934,261.708252 
	C209.461578,261.924591 209.690155,262.001862 209.944321,262.003571 
z"/>
<path fill="#E5E5E5" opacity="1.000000" stroke="none" 
	d="
M315.525879,267.960510 
	C315.525879,267.960510 315.500000,267.993073 315.153931,268.316895 
	C318.359680,270.216431 321.911499,271.792175 325.463287,273.367889 
	C325.236328,274.223358 325.009338,275.078796 324.143951,275.965454 
	C322.902954,276.509827 322.300385,277.023041 321.697784,277.536255 
	C310.282257,280.134491 302.881287,276.061768 300.914734,265.788666 
	C302.329102,265.565155 303.834320,265.702454 306.034363,266.035370 
	C308.120575,267.284271 309.390686,268.882538 310.939850,269.227386 
	C312.306763,269.531677 313.985077,268.437286 315.525879,267.960510 
z"/>
<path fill="#F9F9F9" opacity="1.000000" stroke="none" 
	d="
M297.951996,181.021179 
	C297.660156,180.839691 297.368347,180.658203 296.985382,179.824738 
	C296.822388,177.776459 296.750549,176.380142 296.678741,174.983841 
	C296.803986,173.590820 296.929199,172.197784 296.935577,170.073090 
	C296.506561,167.615265 296.196381,165.889084 296.001068,163.843353 
	C296.423950,162.685287 296.731934,161.846771 297.380798,160.999664 
	C298.309906,160.615829 298.898163,160.240585 299.486420,159.865326 
	C298.643402,159.586807 297.800354,159.308289 296.978058,159.014893 
	C296.998779,159.000000 296.960480,159.029404 297.087646,158.743958 
	C296.822723,157.636887 296.430664,156.815277 296.026367,155.681244 
	C296.624115,154.595032 297.234039,153.821198 298.247070,153.026596 
	C299.183594,152.969711 299.717041,152.933609 300.513000,153.164551 
	C301.927460,156.301041 303.079376,159.170502 303.859314,162.036682 
	C302.657471,162.688126 301.827515,163.342850 300.703339,163.996841 
	C299.908081,164.094742 299.407043,164.193359 298.906006,164.291992 
	C298.993286,164.522659 299.080566,164.753326 299.167847,164.983994 
	C299.779022,164.656769 300.390228,164.329544 301.279114,164.106140 
	C302.471375,164.041946 303.385925,163.873962 304.300110,163.720612 
	C304.299744,163.735260 304.307373,163.712387 304.231140,164.064819 
	C305.033051,166.904282 307.358032,170.225403 306.501007,171.712021 
	C304.447418,175.274033 300.897797,177.973541 297.951996,181.021179 
z"/>
<path fill="#0A0A0A" opacity="1.000000" stroke="none" 
	d="
M291.532440,244.990112 
	C291.713623,247.295364 291.508331,249.698425 291.227264,252.988754 
	C291.132782,253.064651 290.166138,253.841309 289.562744,254.326126 
	C290.514923,256.548187 291.346344,258.488434 292.038361,260.717041 
	C290.253296,263.820160 288.607666,266.634888 286.517029,270.210785 
	C285.470703,267.555878 283.596375,265.120026 283.904114,263.001068 
	C284.300018,260.274841 286.445892,257.802734 285.386292,257.425720 
	C283.961975,255.772781 282.537628,254.119843 281.113312,252.466919 
	C281.738281,251.704559 282.363251,250.942200 282.988251,250.179840 
	C285.707489,248.482529 288.426758,246.785217 291.532440,244.990112 
M285.277069,251.824524 
	C285.385956,251.976486 285.494812,252.128448 285.603699,252.280426 
	C285.582611,252.069519 285.561523,251.858627 285.277069,251.824524 
z"/>
<path fill="#EAEAEA" opacity="1.000000" stroke="none" 
	d="
M297.984467,181.339447 
	C300.897797,177.973541 304.447418,175.274033 306.501007,171.712021 
	C307.358032,170.225403 305.033051,166.904282 304.458862,163.980133 
	C305.096405,163.040680 305.430054,162.538345 305.763702,162.036011 
	C311.717682,166.053970 312.720520,175.532242 307.492584,179.887863 
	C305.516388,181.534332 303.100739,182.653351 300.428894,183.713089 
	C299.646973,183.298325 299.321625,183.183289 298.996277,183.068237 
	C298.669830,182.598083 298.343384,182.127914 297.984467,181.339447 
z"/>
<path fill="#BDBDBD" opacity="1.000000" stroke="none" 
	d="
M297.039948,161.008255 
	C296.731934,161.846771 296.423950,162.685287 295.667664,163.809937 
	C294.406281,162.968658 293.593201,161.841248 292.780121,160.713837 
	C292.779541,160.349899 292.778931,159.985947 292.714966,159.135651 
	C292.411041,158.106766 292.170502,157.564240 291.929962,157.021713 
	C291.936279,156.817337 291.942627,156.612961 292.172974,156.084122 
	C292.256897,155.600128 292.116760,155.440598 291.976654,155.281067 
	C291.680328,154.240891 291.384003,153.200714 290.811829,151.882019 
	C290.536011,151.603500 290.595764,151.556656 290.595764,151.556656 
	C290.595764,151.556656 290.949707,151.283539 291.192627,150.841949 
	C291.700623,149.585052 291.965729,148.769745 292.230804,147.954422 
	C292.975494,144.141388 295.899445,144.311295 299.316223,144.526062 
	C299.992554,145.055969 300.119629,145.437927 300.246704,145.819901 
	C299.886719,146.092041 299.526703,146.364166 298.613464,146.817078 
	C297.011719,147.155533 295.963196,147.313217 294.325256,147.559540 
	C296.464081,149.054611 297.794739,149.984756 298.802643,150.922852 
	C297.844208,151.319702 297.208496,151.708618 296.572784,152.097534 
	C296.996521,152.414139 297.420258,152.730759 297.843994,153.047379 
	C297.234039,153.821198 296.624115,154.595032 296.006104,156.020508 
	C296.318878,157.457916 296.639679,158.243668 296.960480,159.029404 
	C296.960480,159.029404 296.998779,159.000000 296.985535,159.344727 
	C296.994843,160.129044 297.017395,160.568649 297.039948,161.008255 
z"/>
<path fill="#BDBDBD" opacity="1.000000" stroke="none" 
	d="
M271.253540,233.407745 
	C271.875946,232.553619 272.745636,232.110535 273.895935,231.274872 
	C274.176544,230.882309 274.239380,230.485825 274.239380,230.485825 
	C274.239380,237.531265 274.239380,244.576706 274.239380,252.348190 
	C272.600281,251.678085 271.068268,251.051743 269.761902,250.517670 
	C273.000854,244.985321 270.817780,239.240036 271.253540,233.407745 
z"/>
<path fill="#CECECE" opacity="1.000000" stroke="none" 
	d="
M273.162598,315.850708 
	C272.103271,316.209412 271.153839,316.209412 271.030304,316.209412 
	C271.314728,311.501099 271.579193,307.122986 271.864594,302.398346 
	C266.135620,302.398346 261.079895,302.398346 255.646469,302.398346 
	C255.517197,303.742432 255.380493,305.163666 254.721848,306.864014 
	C253.772736,307.109375 253.345581,307.075684 252.918411,307.041962 
	C252.816315,304.804901 252.714233,302.567871 252.604599,300.165222 
	C260.027405,300.165222 266.873352,300.165222 274.417206,300.165222 
	C274.417206,302.971649 274.417206,305.532471 274.418762,308.898682 
	C274.494659,310.478912 274.569031,311.253693 274.643402,312.028473 
	C274.186432,313.182983 273.729462,314.337524 273.162598,315.850708 
z"/>
<path fill="#BDBDBD" opacity="1.000000" stroke="none" 
	d="
M271.133118,259.683044 
	C269.601288,259.008087 267.947906,258.152191 266.730011,256.879547 
	C261.255737,251.159348 254.657516,248.934082 246.310287,249.738525 
	C245.499222,248.942886 245.247787,248.475357 244.996353,248.007828 
	C249.429886,248.010498 253.938583,247.500397 258.279266,248.136597 
	C264.712341,249.079483 268.369019,253.873703 271.133118,259.683044 
z"/>
<path fill="#6C6C6C" opacity="1.000000" stroke="none" 
	d="
M334.454529,271.126526 
	C329.004028,267.219482 330.686401,262.245087 338.847351,258.182983 
	C337.794983,260.482849 336.401154,262.628601 335.007355,264.774384 
	C335.464752,265.135590 335.922180,265.496796 336.379578,265.858002 
	C337.490723,265.303375 338.601898,264.748718 339.713074,264.194061 
	C340.078400,264.586517 340.443756,264.978973 340.809082,265.371429 
	C338.810272,267.309631 336.811462,269.247833 334.454529,271.126526 
z"/>
<path fill="#E5E5E5" opacity="1.000000" stroke="none" 
	d="
M252.750244,307.416321 
	C253.345581,307.075684 253.772736,307.109375 254.518097,307.197632 
	C253.673508,312.356476 250.724976,314.654877 245.272812,314.199829 
	C241.116348,313.852936 236.890076,314.342560 232.343842,314.239502 
	C232.266800,313.565643 232.540787,313.112305 232.887604,312.401459 
	C239.830582,312.178314 246.709320,312.251617 252.750244,307.416321 
z"/>
<path fill="#0A0A0A" opacity="1.000000" stroke="none" 
	d="
M294.632446,193.034363 
	C294.628693,195.006210 294.264740,197.015030 293.782227,199.678253 
	C295.065460,198.631012 295.754974,198.068329 296.444489,197.505630 
	C296.725098,197.658264 297.005707,197.810898 297.286316,197.963531 
	C295.420685,201.569534 293.555023,205.175537 291.387329,208.994995 
	C290.416992,206.160263 288.842651,202.950394 289.349152,200.111832 
	C289.805664,197.553619 292.541626,195.402176 294.632446,193.034363 
z"/>
<path fill="#E5E5E5" opacity="1.000000" stroke="none" 
	d="
M239.959930,327.102173 
	C239.648895,326.354095 239.784973,325.034698 240.003433,325.020905 
	C247.026810,324.577759 254.057892,324.255585 261.089325,323.949585 
	C261.299225,323.940430 261.681427,324.283600 261.702026,324.490509 
	C261.725067,324.722198 261.427521,324.985809 261.159851,325.626190 
	C254.367798,329.802307 247.298828,326.492706 239.959930,327.102173 
z"/>
<path fill="#020202" opacity="1.000000" stroke="none" 
	d="
M217.123779,237.574127 
	C217.293381,237.494141 217.462997,237.414124 217.867233,237.178986 
	C219.246582,237.023392 220.463715,236.781464 221.513885,237.096359 
	C222.407822,237.364410 223.685379,238.218781 223.751526,238.912994 
	C223.835663,239.796036 223.089417,241.056625 222.316528,241.668945 
	C219.598450,243.822296 216.532700,244.469574 212.750443,242.634552 
	C212.367722,240.969208 212.455490,239.675766 212.538361,238.454437 
	C214.250305,238.125778 215.687042,237.849960 217.123779,237.574127 
z"/>
<path fill="#0A0A0A" opacity="1.000000" stroke="none" 
	d="
M289.920654,231.099609 
	C291.142822,233.657990 292.060059,236.394867 292.998047,239.193680 
	C291.854950,239.861618 290.657959,240.561020 289.308167,241.602173 
	C286.788239,240.151642 284.421112,238.359360 282.027008,236.283539 
	C282.000000,236.000000 282.000000,235.999390 282.000000,235.999390 
	C284.538574,234.425629 287.077148,232.851868 289.920654,231.099609 
z"/>
<path fill="#DBDBDB" opacity="1.000000" stroke="none" 
	d="
M216.963120,237.194580 
	C215.687042,237.849960 214.250305,238.125778 212.538361,238.454437 
	C212.455490,239.675766 212.367722,240.969208 212.401794,242.631836 
	C212.543045,244.836121 212.562439,246.671188 212.910248,249.055450 
	C213.144791,250.040375 213.050888,250.476120 212.957001,250.911865 
	C212.440643,251.225067 211.924286,251.538269 211.259750,252.027130 
	C210.592209,249.333740 210.072861,246.464676 209.399612,243.262421 
	C209.387360,240.766846 209.529022,238.604446 210.181061,236.048737 
	C211.994507,235.718079 213.297546,235.780746 214.600601,235.843414 
	C215.334549,236.167282 216.068512,236.491150 216.963120,237.194580 
z"/>
<path fill="#0A0A0A" opacity="1.000000" stroke="none" 
	d="
M93.927719,237.173065 
	C94.425896,244.972656 94.582619,253.038010 94.636948,261.563416 
	C94.037712,261.434875 93.103966,260.841614 93.110191,260.258362 
	C93.191284,252.651031 93.405525,245.045105 93.927719,237.173065 
z"/>
<path fill="#DBDBDB" opacity="1.000000" stroke="none" 
	d="
M244.989746,247.891663 
	C245.247787,248.475357 245.499222,248.942886 245.858353,249.653931 
	C238.351562,249.957916 230.737061,250.023209 223.122452,250.058273 
	C222.862076,250.059479 222.497406,249.810516 222.376892,249.577164 
	C222.301773,249.431686 222.594498,249.096237 222.880096,248.488007 
	C227.057343,247.943359 231.076660,247.756744 235.865463,247.562912 
	C237.099106,247.457825 237.563248,247.359955 238.027390,247.262100 
	C239.085312,247.381424 240.143219,247.500763 241.960876,247.637360 
	C243.517166,247.629913 244.313690,247.605225 245.110229,247.580521 
	C245.110229,247.580521 244.983154,247.775482 244.989746,247.891663 
z"/>
<path fill="#0A0A0A" opacity="1.000000" stroke="none" 
	d="
M214.768356,235.423798 
	C213.297546,235.780746 211.994507,235.718079 210.297607,235.654724 
	C209.933060,234.716675 209.962357,233.779297 209.993027,232.490051 
	C210.580841,230.346436 211.167282,228.554672 211.886948,226.380936 
	C212.764847,225.994080 213.509521,225.989212 214.626465,225.992142 
	C214.977875,229.001343 214.956985,232.002762 214.768356,235.423798 
z"/>
<path fill="#ABABAB" opacity="1.000000" stroke="none" 
	d="
M359.038300,263.962708 
	C360.393311,266.324585 361.748291,268.686462 363.113953,271.402527 
	C362.138458,272.175201 360.912354,272.354492 360.211334,273.057434 
	C358.155792,275.118622 356.839752,274.076660 354.990662,271.592529 
	C354.591003,270.541077 354.751587,270.169891 355.129150,270.109589 
	C356.067291,270.643188 356.788361,270.865875 357.794678,271.473389 
	C359.199066,272.403564 360.318237,272.948883 361.437378,273.494202 
	C361.143555,272.236603 360.961243,270.936493 360.505524,269.740601 
	C360.299988,269.201294 359.549561,268.869568 358.990906,268.220093 
	C358.599487,267.687531 358.263519,267.378510 357.934448,266.731750 
	C358.306976,265.583588 358.672638,264.773132 359.038300,263.962708 
z"/>
<path fill="#0A0A0A" opacity="1.000000" stroke="none" 
	d="
M292.403320,160.904877 
	C293.593201,161.841248 294.406281,162.968658 295.552795,164.129486 
	C296.196381,165.889084 296.506561,167.615265 296.774170,169.677521 
	C291.077698,168.096634 290.182281,166.399551 292.403320,160.904877 
z"/>
<path fill="#0A0A0A" opacity="1.000000" stroke="none" 
	d="
M289.238220,213.059769 
	C289.451263,217.337173 289.304108,221.693924 289.123047,226.508835 
	C286.242523,224.262344 286.126770,216.679916 289.238220,213.059769 
z"/>
<path fill="#0A0A0A" opacity="1.000000" stroke="none" 
	d="
M384.900757,175.768982 
	C382.234039,178.003006 379.440857,179.926544 376.647675,181.850082 
	C376.403198,181.487442 376.158691,181.124817 375.914215,180.762177 
	C377.964355,178.420578 380.014496,176.078995 382.025726,173.369049 
	C382.915955,173.819962 383.845123,174.639221 384.900757,175.768982 
z"/>
<path fill="#ABABAB" opacity="1.000000" stroke="none" 
	d="
M225.459564,327.157471 
	C224.995636,326.604706 224.986191,326.175476 224.969528,325.424377 
	C228.675110,325.008362 232.387924,324.914246 236.764328,325.159973 
	C237.828918,325.645172 238.229904,325.790558 238.630875,325.935974 
	C238.991714,326.097870 239.352554,326.259735 239.620682,326.739441 
	C234.989990,327.131866 230.452011,327.206451 225.459564,327.157471 
z"/>
<path fill="#6C6C6C" opacity="1.000000" stroke="none" 
	d="
M325.525330,272.885437 
	C321.911499,271.792175 318.359680,270.216431 315.166809,268.297241 
	C318.845093,268.989868 322.164459,270.025940 325.739136,271.290649 
	C325.858734,271.813843 325.723053,272.108398 325.525330,272.885437 
z"/>
<path fill="#0A0A0A" opacity="1.000000" stroke="none" 
	d="
M237.377350,183.993225 
	C237.430405,182.308990 237.853729,180.617569 238.649078,178.740021 
	C239.799530,178.438843 240.577988,178.323822 241.684097,178.106216 
	C243.230820,181.879822 240.770279,183.133255 237.377350,183.993225 
z"/>
<path fill="#0A0A0A" opacity="1.000000" stroke="none" 
	d="
M213.037079,177.125290 
	C209.531906,174.008698 211.109451,170.087509 212.597336,166.202576 
	C213.024261,169.699722 213.037231,173.197906 213.037079,177.125290 
z"/>
<path fill="#0A0A0A" opacity="1.000000" stroke="none" 
	d="
M337.480194,177.872787 
	C338.553680,175.590714 339.627136,173.308640 340.985809,170.871643 
	C341.713898,170.849091 342.156799,170.981445 343.252869,171.346802 
	C342.730438,173.538818 341.554810,175.497864 339.744202,177.709930 
	C338.566223,177.932907 338.023193,177.902847 337.480194,177.872787 
z"/>
<path fill="#0A0A0A" opacity="1.000000" stroke="none" 
	d="
M204.394653,245.985077 
	C204.523483,244.862045 205.278519,243.721085 205.346619,242.540497 
	C205.386246,241.853668 204.324356,241.103287 203.384659,240.456772 
	C204.004211,239.742828 204.997192,238.953613 205.990173,238.164398 
	C206.372345,239.558517 206.754517,240.952606 207.154297,242.682281 
	C206.358765,243.995407 205.545654,244.972961 204.394653,245.985077 
z"/>
<path fill="#0A0A0A" opacity="1.000000" stroke="none" 
	d="
M87.059875,196.938843 
	C88.464661,196.602264 89.846703,196.681198 91.616379,196.927994 
	C91.014221,198.426987 90.024429,199.758087 88.090515,202.358887 
	C87.541138,199.748856 87.289131,198.551605 87.059875,196.938843 
z"/>
<path fill="#0A0A0A" opacity="1.000000" stroke="none" 
	d="
M94.202454,265.106689 
	C94.606094,267.368103 94.674477,269.758148 94.640160,272.585754 
	C94.314041,270.427307 94.090614,267.831299 94.202454,265.106689 
z"/>
<path fill="#6C6C6C" opacity="1.000000" stroke="none" 
	d="
M349.542908,259.044250 
	C351.249084,259.682953 352.689148,260.365875 353.785126,261.555847 
	C352.395264,262.039490 351.349518,262.016083 350.303741,261.992645 
	C349.647400,261.728607 348.991058,261.464569 348.272919,261.175659 
	C348.607788,260.479431 348.942291,259.783936 349.542908,259.044250 
z"/>
<path fill="#1D1D1D" opacity="1.000000" stroke="none" 
	d="
M354.912140,269.798676 
	C354.751587,270.169891 354.591003,270.541077 354.692413,271.459412 
	C354.399261,271.652771 353.844116,271.299042 353.274231,270.324219 
	C353.172607,269.138672 353.085693,268.574219 352.998749,268.009735 
	C352.990143,267.256226 352.981537,266.502686 353.350311,265.364014 
	C354.203064,265.058563 354.678497,265.138306 355.316895,265.405457 
	C355.722351,266.026245 355.964813,266.459595 355.951599,267.028961 
	C355.434662,268.042847 355.173401,268.920776 354.912140,269.798676 
z"/>
<path fill="#6C6C6C" opacity="1.000000" stroke="none" 
	d="
M347.183228,252.757294 
	C346.914276,251.637924 346.986572,250.439224 347.058838,249.240524 
	C347.520996,249.167923 347.983154,249.095306 348.445312,249.022705 
	C348.851990,250.841934 349.258667,252.661179 349.565430,254.871613 
	C348.818512,254.401184 348.171478,253.539581 347.183228,252.757294 
z"/>
<path fill="#0A0A0A" opacity="1.000000" stroke="none" 
	d="
M296.348450,175.034836 
	C296.750549,176.380142 296.822388,177.776459 296.853577,179.590973 
	C293.375763,178.880188 292.814941,177.286835 296.348450,175.034836 
z"/>
<path fill="#0A0A0A" opacity="1.000000" stroke="none" 
	d="
M310.426208,154.134064 
	C309.458649,153.547928 308.869537,152.815018 308.212769,151.803986 
	C309.222870,150.918335 310.300659,150.310806 312.425171,149.113251 
	C311.677429,151.362213 311.241028,152.674759 310.426208,154.134064 
z"/>
<path fill="#0A0A0A" opacity="1.000000" stroke="none" 
	d="
M168.914078,166.312317 
	C167.289139,166.723541 165.561462,166.801483 163.409409,166.788574 
	C164.927139,166.458160 166.869232,166.218613 168.914078,166.312317 
z"/>
<path fill="#ABABAB" opacity="1.000000" stroke="none" 
	d="
M355.153931,265.218048 
	C354.678497,265.138306 354.203064,265.058563 353.364380,264.987305 
	C352.034546,264.194336 351.067993,263.392914 350.202606,262.292053 
	C351.349518,262.016083 352.395264,262.039490 353.803253,261.905548 
	C354.165466,261.748169 354.152039,261.845520 354.132233,262.229095 
	C354.459595,263.481110 354.806763,264.349579 355.153931,265.218048 
z"/>
<path fill="#0A0A0A" opacity="1.000000" stroke="none" 
	d="
M192.826416,173.213074 
	C191.581863,172.621719 190.397644,171.625885 189.111206,170.313324 
	C190.101822,169.806015 191.194656,169.615417 192.624161,169.366104 
	C192.722336,170.653046 192.804535,171.730804 192.826416,173.213074 
z"/>
<path fill="#0A0A0A" opacity="1.000000" stroke="none" 
	d="
M269.283630,276.356995 
	C270.726288,275.648590 272.422150,275.204376 274.481445,274.569031 
	C274.177124,277.732330 271.852875,277.167053 269.283630,276.356995 
z"/>
<path fill="#0A0A0A" opacity="1.000000" stroke="none" 
	d="
M319.517090,164.784592 
	C316.583130,166.980255 316.172913,164.308792 315.145569,162.291046 
	C316.565125,162.711975 317.997894,163.482285 319.517090,164.784592 
z"/>
<path fill="#0A0A0A" opacity="1.000000" stroke="none" 
	d="
M242.249054,172.721298 
	C241.888992,171.274399 241.846771,169.524963 242.010010,167.468994 
	C242.332626,168.914566 242.449768,170.666656 242.249054,172.721298 
z"/>
<path fill="#0A0A0A" opacity="1.000000" stroke="none" 
	d="
M218.475311,231.932831 
	C218.048157,230.606323 217.970367,229.206924 218.009888,227.400909 
	C220.910904,228.250473 220.685181,229.938034 218.475311,231.932831 
z"/>
<path fill="#0A0A0A" opacity="1.000000" stroke="none" 
	d="
M315.059021,161.457123 
	C313.931213,160.166412 312.790619,158.490982 311.545319,156.478104 
	C312.642487,157.784561 313.844391,159.428467 315.059021,161.457123 
z"/>
<path fill="#0A0A0A" opacity="1.000000" stroke="none" 
	d="
M380.873962,172.176682 
	C380.004730,172.347260 379.180328,172.108276 378.120697,171.645905 
	C378.391296,170.706070 378.897156,169.989624 379.402985,169.273193 
	C379.908264,170.104492 380.413544,170.935806 380.873962,172.176682 
z"/>
<path fill="#0A0A0A" opacity="1.000000" stroke="none" 
	d="
M199.688354,250.706665 
	C200.311844,249.469376 201.350494,248.348969 202.714981,247.172760 
	C202.986374,249.085236 203.247177,251.303299 199.688354,250.706665 
z"/>
<path fill="#020202" opacity="1.000000" stroke="none" 
	d="
M213.157257,251.170929 
	C213.050888,250.476120 213.144791,250.040375 213.240692,249.268646 
	C214.038422,249.121490 214.834167,249.310318 215.814636,249.748947 
	C215.118774,250.475830 214.238159,250.952911 213.157257,251.170929 
z"/>
<path fill="#020202" opacity="1.000000" stroke="none" 
	d="
M206.099823,249.244080 
	C206.663849,249.799210 206.921066,250.438904 207.178299,251.078598 
	C206.634003,251.170624 206.089706,251.262634 205.545410,251.354660 
	C205.627945,250.679321 205.710495,250.003983 206.099823,249.244080 
z"/>
<path fill="#0A0A0A" opacity="1.000000" stroke="none" 
	d="
M300.579590,145.876343 
	C300.119629,145.437927 299.992554,145.055969 299.684143,144.423065 
	C300.967957,144.866135 302.433075,145.560135 303.956787,146.611755 
	C302.981079,146.623856 301.946777,146.278305 300.579590,145.876343 
z"/>
<path fill="#0A0A0A" opacity="1.000000" stroke="none" 
	d="
M237.407257,216.934067 
	C236.998901,215.930405 236.927765,214.857269 236.956284,213.390640 
	C239.717651,213.853271 239.622345,215.200241 237.407257,216.934067 
z"/>
<path fill="#6C6C6C" opacity="1.000000" stroke="none" 
	d="
M328.198456,272.149475 
	C329.167969,271.730621 330.341461,271.585236 331.759186,271.609253 
	C330.803101,271.993469 329.602753,272.208191 328.198456,272.149475 
z"/>
<path fill="#0A0A0A" opacity="1.000000" stroke="none" 
	d="
M181.932312,166.257858 
	C180.939133,166.630661 179.857285,166.702896 178.377457,166.684387 
	C179.267517,166.381516 180.555588,166.169403 181.932312,166.257858 
z"/>
<path fill="#0A0A0A" opacity="1.000000" stroke="none" 
	d="
M108.936165,166.424545 
	C107.933189,166.803757 106.854149,166.865036 105.380798,166.823807 
	C106.277695,166.516403 107.568901,166.311508 108.936165,166.424545 
z"/>
<path fill="#0A0A0A" opacity="1.000000" stroke="none" 
	d="
M217.030975,324.270508 
	C217.966263,324.587341 218.889740,325.280518 219.999451,326.197815 
	C218.057312,328.134369 217.793365,327.986420 217.030975,324.270508 
z"/>
<path fill="#0A0A0A" opacity="1.000000" stroke="none" 
	d="
M195.796890,254.882355 
	C196.074860,253.947937 196.721954,253.063889 197.683075,252.069000 
	C198.324448,252.853043 198.651794,253.747894 199.085205,254.932709 
	C198.033310,254.932709 197.099670,254.932709 195.796890,254.882355 
z"/>
<path fill="#0A0A0A" opacity="1.000000" stroke="none" 
	d="
M348.196533,167.367783 
	C347.685791,168.142487 347.120636,168.582031 346.282227,169.069733 
	C346.368713,168.037827 346.728455,166.957748 347.088196,165.877670 
	C347.439545,166.262665 347.790833,166.647644 348.196533,167.367783 
z"/>
<path fill="#0A0A0A" opacity="1.000000" stroke="none" 
	d="
M291.872070,147.999847 
	C291.965729,148.769745 291.700623,149.585052 291.223999,150.620621 
	C291.179413,149.908997 291.346375,148.977127 291.872070,147.999847 
z"/>
<path fill="#0A0A0A" opacity="1.000000" stroke="none" 
	d="
M306.990967,149.672424 
	C306.056793,149.226883 305.130890,148.408554 304.118958,147.286057 
	C305.021729,147.754486 306.010468,148.527069 306.990967,149.672424 
z"/>
<path fill="#0A0A0A" opacity="1.000000" stroke="none" 
	d="
M245.022034,247.303146 
	C244.313690,247.605225 243.517166,247.629913 242.345505,247.511536 
	C242.958191,247.254227 243.946014,247.139999 245.022034,247.303146 
z"/>
<path fill="#0A0A0A" opacity="1.000000" stroke="none" 
	d="
M274.900330,311.940186 
	C274.569031,311.253693 274.494659,310.478912 274.564972,309.336426 
	C274.858826,309.929779 275.008057,310.890839 274.900330,311.940186 
z"/>
<path fill="#0A0A0A" opacity="1.000000" stroke="none" 
	d="
M256.225922,234.975555 
	C255.559402,235.323914 254.472641,235.667038 253.343109,235.642075 
	C254.135468,235.172760 254.970551,235.071533 256.225922,234.975555 
z"/>
<path fill="#0A0A0A" opacity="1.000000" stroke="none" 
	d="
M218.458435,196.953400 
	C218.065765,196.245621 217.990738,195.484955 218.039749,194.358551 
	C218.367889,194.962051 218.571960,195.931259 218.458435,196.953400 
z"/>
<path fill="#0A0A0A" opacity="1.000000" stroke="none" 
	d="
M218.467178,186.952881 
	C218.073273,186.246735 217.996292,185.486771 218.039810,184.359894 
	C218.368240,184.961670 218.576172,185.930374 218.467178,186.952881 
z"/>
<path fill="#0A0A0A" opacity="1.000000" stroke="none" 
	d="
M234.080795,198.021240 
	C234.452560,198.732941 234.540848,199.582108 234.499512,200.730453 
	C234.179047,200.072647 233.988190,199.115677 234.080795,198.021240 
z"/>
<path fill="#0A0A0A" opacity="1.000000" stroke="none" 
	d="
M210.511642,179.834320 
	C211.338837,179.701569 212.001389,179.920868 212.906525,180.259766 
	C212.079391,182.285095 211.118240,182.614532 210.511642,179.834320 
z"/>
<path fill="#0A0A0A" opacity="1.000000" stroke="none" 
	d="
M86.354774,165.411133 
	C86.131325,165.779877 85.949806,165.678909 85.917778,165.732056 
	C85.646996,164.813583 85.408249,163.841949 85.169502,162.870300 
	C85.547638,162.800369 85.925774,162.730438 86.303909,162.660492 
	C86.395348,163.454453 86.486786,164.248413 86.354774,165.411133 
z"/>
<path fill="#0A0A0A" opacity="1.000000" stroke="none" 
	d="
M334.951233,163.325638 
	C334.254974,163.686203 333.492584,163.753693 332.356201,163.726624 
	C332.949860,163.432236 333.917480,163.232391 334.951233,163.325638 
z"/>
<path fill="#0A0A0A" opacity="1.000000" stroke="none" 
	d="
M234.190704,209.055939 
	C234.552704,209.739792 234.638123,210.504349 234.629456,211.646454 
	C234.328293,211.061554 234.121216,210.099106 234.190704,209.055939 
z"/>
<path fill="#0A0A0A" opacity="1.000000" stroke="none" 
	d="
M340.951233,163.905243 
	C340.221924,164.170364 339.465881,164.094849 338.349731,163.892120 
	C338.967896,163.698166 339.946228,163.631393 340.951233,163.905243 
z"/>
<path fill="#0A0A0A" opacity="1.000000" stroke="none" 
	d="
M274.080750,230.169922 
	C274.239380,230.485825 274.176544,230.882309 274.104553,231.069672 
	C273.111481,231.050522 272.190430,230.843994 271.140198,230.301117 
	C271.981384,229.927856 272.951752,229.890930 274.080750,230.169922 
z"/>
<path fill="#0A0A0A" opacity="1.000000" stroke="none" 
	d="
M401.522278,155.047241 
	C401.430542,155.917435 401.005096,156.841736 400.288055,157.878204 
	C400.393799,157.027374 400.791168,156.064377 401.522278,155.047241 
z"/>
<path fill="#6C6C6C" opacity="1.000000" stroke="none" 
	d="
M352.691101,268.012878 
	C353.085693,268.574219 353.172607,269.138672 353.130280,270.113678 
	C352.058350,269.724213 351.115692,268.924225 349.630768,267.664124 
	C350.984070,267.837158 351.683746,267.926605 352.691101,268.012878 
z"/>
<path fill="#0A0A0A" opacity="1.000000" stroke="none" 
	d="
M218.467773,179.956024 
	C218.035385,179.588898 217.897919,179.170319 217.766479,178.420258 
	C218.102585,178.694031 218.432632,179.299286 218.467773,179.956024 
z"/>
<path fill="#0A0A0A" opacity="1.000000" stroke="none" 
	d="
M360.975342,166.432663 
	C360.464081,166.604279 359.914185,166.505829 359.190125,166.175934 
	C359.656189,166.017197 360.296478,166.089890 360.975342,166.432663 
z"/>
<path fill="#0A0A0A" opacity="1.000000" stroke="none" 
	d="
M209.105728,178.086700 
	C209.604584,178.281815 209.835144,178.586273 210.259460,179.102478 
	C209.906677,179.431885 209.360138,179.549561 208.813599,179.667221 
	C208.821548,179.176819 208.829498,178.686432 209.105728,178.086700 
z"/>
<path fill="#6C6C6C" opacity="1.000000" stroke="none" 
	d="
M322.001160,277.634155 
	C322.300385,277.023041 322.902954,276.509827 323.808655,276.073975 
	C323.509369,276.678253 322.906982,277.205139 322.001160,277.634155 
z"/>
<path fill="#0A0A0A" opacity="1.000000" stroke="none" 
	d="
M83.272476,169.030930 
	C83.603241,169.439682 83.689369,169.900208 83.631279,170.692108 
	C83.333984,170.376556 83.180908,169.729630 83.272476,169.030930 
z"/>
<path fill="#0A0A0A" opacity="1.000000" stroke="none" 
	d="
M211.530914,162.492767 
	C211.238022,163.031952 210.658340,163.394165 209.735275,163.765823 
	C210.009308,163.288773 210.626709,162.802307 211.530914,162.492767 
z"/>
<path fill="#0A0A0A" opacity="1.000000" stroke="none" 
	d="
M274.803040,262.309540 
	C274.213928,261.985596 273.691803,261.297119 273.206116,260.267273 
	C273.785065,260.598969 274.327545,261.271973 274.803040,262.309540 
z"/>
<path fill="#0A0A0A" opacity="1.000000" stroke="none" 
	d="
M291.705383,157.223358 
	C292.170502,157.564240 292.411041,158.106766 292.602051,158.885529 
	C292.195251,158.556183 291.838043,157.990601 291.705383,157.223358 
z"/>
<path fill="#0A0A0A" opacity="1.000000" stroke="none" 
	d="
M192.950729,257.832886 
	C193.126556,257.150726 193.700897,256.471008 194.583679,255.642670 
	C194.377823,256.274475 193.863525,257.054871 192.950729,257.832886 
z"/>
<path fill="#0A0A0A" opacity="1.000000" stroke="none" 
	d="
M157.967697,166.438690 
	C157.560333,166.766708 157.106842,166.828506 156.319565,166.797638 
	C156.631042,166.527481 157.276306,166.349976 157.967697,166.438690 
z"/>
<path fill="#0A0A0A" opacity="1.000000" stroke="none" 
	d="
M356.963623,165.517151 
	C356.558563,165.878937 356.108032,165.963028 355.325378,165.946472 
	C355.634918,165.643723 356.276550,165.441589 356.963623,165.517151 
z"/>
<path fill="#0A0A0A" opacity="1.000000" stroke="none" 
	d="
M237.954498,247.049438 
	C237.563248,247.359955 237.099106,247.457825 236.302307,247.408936 
	C236.606964,247.120361 237.244278,246.978577 237.954498,247.049438 
z"/>
<path fill="#0A0A0A" opacity="1.000000" stroke="none" 
	d="
M237.308838,238.638657 
	C237.656525,238.132080 237.936005,238.078735 238.438248,238.185196 
	C238.473541,238.937393 238.303635,239.621765 238.133728,240.306152 
	C237.830170,239.870743 237.526611,239.435333 237.308838,238.638657 
z"/>
<path fill="#0A0A0A" opacity="1.000000" stroke="none" 
	d="
M247.088547,307.363342 
	C246.821701,307.634644 246.427078,307.745697 246.024796,307.801331 
	C245.956528,307.810791 245.855331,307.582062 245.769348,307.463318 
	C246.165634,307.370361 246.561920,307.277405 247.088547,307.363342 
z"/>
<path fill="#0A0A0A" opacity="1.000000" stroke="none" 
	d="
M225.910767,243.636520 
	C226.177124,243.365799 226.571182,243.254929 226.972885,243.199463 
	C227.041138,243.190018 227.142212,243.418320 227.228119,243.536774 
	C226.832428,243.629532 226.436752,243.722290 225.910767,243.636520 
z"/>
<path fill="#0A0A0A" opacity="1.000000" stroke="none" 
	d="
M249.752045,306.358276 
	C249.996796,306.373138 250.130188,306.505005 250.263580,306.636871 
	C250.055954,306.582977 249.848312,306.529114 249.752045,306.358276 
z"/>
<path fill="#0A0A0A" opacity="1.000000" stroke="none" 
	d="
M348.247986,163.641937 
	C348.003296,163.627060 347.869995,163.495300 347.736664,163.363556 
	C347.944214,163.417389 348.151794,163.471237 348.247986,163.641937 
z"/>
<path fill="#0A0A0A" opacity="1.000000" stroke="none" 
	d="
M299.003143,183.465912 
	C299.321625,183.183289 299.646973,183.298325 300.070465,183.712860 
	C300.009613,184.384262 299.850586,184.756195 299.432190,185.287262 
	C299.118530,184.918793 299.064270,184.391190 299.003143,183.465912 
z"/>
<path fill="#0A0A0A" opacity="1.000000" stroke="none" 
	d="
M231.881287,309.411743 
	C231.992279,309.628052 231.919876,309.628632 231.896439,309.645935 
	C231.719254,309.409241 231.565521,309.155273 231.411774,308.901306 
	C231.531281,308.999359 231.650787,309.097382 231.881287,309.411743 
z"/>
<path fill="#0A0A0A" opacity="1.000000" stroke="none" 
	d="
M247.546524,162.471313 
	C247.576782,162.523544 247.516266,162.419083 247.546524,162.471313 
z"/>
<path fill="#0A0A0A" opacity="1.000000" stroke="none" 
	d="
M291.955231,155.408768 
	C292.116760,155.440598 292.256897,155.600128 292.163971,155.777527 
	C291.930939,155.795410 291.933807,155.536469 291.955231,155.408768 
z"/>
<path fill="#0A0A0A" opacity="1.000000" stroke="none" 
	d="
M232.548080,306.468384 
	C232.580582,306.523010 232.515579,306.413727 232.548080,306.468384 
z"/>
<path fill="#0A0A0A" opacity="1.000000" stroke="none" 
	d="
M277.528992,303.547119 
	C277.476105,303.577911 277.581909,303.516296 277.528992,303.547119 
z"/>
<path fill="#0A0A0A" opacity="1.000000" stroke="none" 
	d="
M253.452972,297.531525 
	C253.422256,297.478851 253.483704,297.584198 253.452972,297.531525 
z"/>
<path fill="#0A0A0A" opacity="1.000000" stroke="none" 
	d="
M389.469177,166.451019 
	C389.522888,166.419083 389.415497,166.482941 389.469177,166.451019 
z"/>
<path fill="#0A0A0A" opacity="1.000000" stroke="none" 
	d="
M290.399231,151.451584 
	C290.595764,151.556656 290.536011,151.603500 290.569702,151.629684 
	C290.336090,151.601883 290.068787,151.547897 289.801514,151.493912 
	C289.935242,151.444778 290.068970,151.395645 290.399231,151.451584 
z"/>
<path fill="#0A0A0A" opacity="1.000000" stroke="none" 
	d="
M237.910843,234.745422 
	C237.678299,234.822723 237.357788,234.701508 237.097519,234.292786 
	C237.436111,234.116287 237.657822,234.296814 237.910843,234.745422 
z"/>
<path fill="#0A0A0A" opacity="1.000000" stroke="none" 
	d="
M282.000000,236.000031 
	C281.881866,235.861664 281.763763,235.723282 281.645630,235.584900 
	C281.728668,235.633163 281.811707,235.681427 281.947388,235.864532 
	C282.000000,235.999390 282.000000,236.000000 282.000000,236.000031 
z"/>
<path fill="#141414" opacity="1.000000" stroke="none" 
	d="
M323.803192,250.996399 
	C319.499939,254.210083 315.434875,257.202728 311.237701,259.996857 
	C310.741669,260.327057 309.033722,259.843536 308.712891,259.273041 
	C305.795074,254.084518 303.060638,248.792877 300.064819,243.139374 
	C308.420990,245.235962 316.491302,247.260818 324.669403,249.312729 
	C324.553802,249.555603 324.277771,250.135681 323.803192,250.996399 
z"/>
<path fill="#1D1D1D" opacity="1.000000" stroke="none" 
	d="
M344.398376,217.056335 
	C350.302399,214.304688 354.001068,217.921677 358.592926,220.861145 
	C353.380737,223.610809 349.097809,226.806564 343.121338,224.182022 
	C341.696777,223.556442 339.310913,225.119949 337.021332,225.775620 
	C338.688873,222.255920 340.324188,218.804291 342.203491,214.837631 
	C343.053558,215.880539 343.535217,216.471481 344.398376,217.056335 
z"/>
<path fill="#424242" opacity="1.000000" stroke="none" 
	d="
M337.186920,178.002838 
	C338.023193,177.902847 338.566223,177.932907 339.517944,177.966949 
	C335.274384,187.163101 330.622101,196.355301 325.969849,205.547501 
	C325.491302,205.428055 325.012756,205.308609 324.534210,205.189163 
	C324.926086,203.349442 324.962769,201.333954 325.771088,199.700256 
	C329.357727,192.451340 333.165710,185.311905 337.186920,178.002838 
z"/>
<path fill="#262626" opacity="1.000000" stroke="none" 
	d="
M300.609436,211.295227 
	C299.717621,209.738571 298.985138,208.523590 298.220703,207.255615 
	C309.745178,206.237503 311.334564,207.878326 307.815643,217.412415 
	C305.419739,215.448776 303.094238,213.542831 300.609436,211.295227 
z"/>
<path fill="#424242" opacity="1.000000" stroke="none" 
	d="
M299.125366,150.914917 
	C297.794739,149.984756 296.464081,149.054611 294.325256,147.559540 
	C295.963196,147.313217 297.011719,147.155533 298.436310,147.110779 
	C300.989502,151.956696 303.166595,156.689682 305.553711,161.729340 
	C305.430054,162.538345 305.096405,163.040680 304.535095,163.627686 
	C304.307373,163.712387 304.299744,163.735260 304.372986,163.443253 
	C304.374573,162.780823 304.302917,162.410385 304.231262,162.039963 
	C303.079376,159.170502 301.927460,156.301041 300.451050,152.876495 
	C299.792847,151.852585 299.459106,151.383759 299.125366,150.914917 
z"/>
<path fill="#1D1D1D" opacity="1.000000" stroke="none" 
	d="
M315.280334,267.685120 
	C313.985077,268.437286 312.306763,269.531677 310.939850,269.227386 
	C309.390686,268.882538 308.120575,267.284271 306.377686,266.112610 
	C307.331726,264.906525 308.637177,263.818726 309.944031,262.729797 
	C311.776337,264.414246 313.405579,265.911987 315.280334,267.685120 
z"/>
<path fill="#6C6C6C" opacity="1.000000" stroke="none" 
	d="
M355.316895,265.405457 
	C354.806763,264.349579 354.459595,263.481110 354.087646,262.249695 
	C355.506866,262.480774 356.950928,263.074799 358.716614,263.815735 
	C358.672638,264.773132 358.306976,265.583588 357.645874,266.713562 
	C356.969360,266.986389 356.588348,266.939697 356.207306,266.892975 
	C355.964813,266.459595 355.722351,266.026245 355.316895,265.405457 
z"/>
<path fill="#EAEAEA" opacity="1.000000" stroke="none" 
	d="
M177.724426,214.992249 
	C177.811722,222.252090 178.618271,229.014404 172.088547,234.054489 
	C168.647308,236.710678 165.324203,238.769836 160.990540,238.792847 
	C150.875519,238.846527 140.760010,238.809982 130.366837,238.809982 
	C130.366837,222.591629 130.366837,207.380081 130.366837,191.965851 
	C142.150070,191.965851 153.739594,191.511185 165.267929,192.153992 
	C171.202805,192.484894 177.721069,201.559814 177.736984,207.516708 
	C177.743210,209.845276 177.728638,212.173889 177.724426,214.992249 
M172.019699,214.463806 
	C172.018860,212.298050 172.059723,210.131317 172.008652,207.966736 
	C171.896606,203.217972 167.395645,198.048920 162.768387,197.944580 
	C153.811279,197.742599 144.846390,197.885574 135.768402,197.885574 
	C135.768402,209.764465 135.768402,221.280853 135.768402,232.546890 
	C136.371048,232.869568 136.513153,233.010498 136.658905,233.014404 
	C143.818069,233.206192 150.978790,233.346970 158.136627,233.578079 
	C166.034607,233.833084 170.883484,229.797745 171.837967,221.905396 
	C172.096695,219.766113 171.969711,217.580200 172.019699,214.463806 
z"/>
<path fill="#CECECE" opacity="1.000000" stroke="none" 
	d="
M207.860291,197.360123 
	C208.155548,200.151520 208.327011,203.307297 208.208511,206.744354 
	C207.857864,203.925262 207.797180,200.824890 207.860291,197.360123 
z"/>
<path fill="#0A0A0A" opacity="1.000000" stroke="none" 
	d="
M200.023743,188.050232 
	C200.662003,188.181168 201.290482,188.672775 202.007843,189.458420 
	C201.619232,189.984909 201.141739,190.217377 200.664246,190.449829 
	C200.447479,189.770172 200.230713,189.090530 200.023743,188.050232 
z"/>
<path fill="#0A0A0A" opacity="1.000000" stroke="none" 
	d="
M177.038116,172.555176 
	C177.439789,172.219437 177.890167,172.151031 178.675156,172.168121 
	C178.368790,172.443222 177.727798,172.632858 177.038116,172.555176 
z"/>
<path fill="#0A0A0A" opacity="1.000000" stroke="none" 
	d="
M206.065735,235.688248 
	C205.529129,235.719208 205.148407,235.593475 204.767670,235.467758 
	C204.871567,235.363129 204.999008,235.154190 205.075378,235.171417 
	C205.464722,235.259308 205.840851,235.405670 206.065735,235.688248 
z"/>
<path fill="#0A0A0A" opacity="1.000000" stroke="none" 
	d="
M95.546204,187.471252 
	C95.576210,187.523087 95.516190,187.419418 95.546204,187.471252 
z"/>
<path fill="#0A0A0A" opacity="1.000000" stroke="none" 
	d="
M101.470535,189.454437 
	C101.522400,189.424210 101.418678,189.484665 101.470535,189.454437 
z"/>
<path fill="#0A0A0A" opacity="1.000000" stroke="none" 
	d="
M201.569687,242.091736 
	C201.657089,242.300949 201.585083,242.589096 201.262146,242.812439 
	C201.079803,242.510742 201.212845,242.318420 201.569687,242.091736 
z"/>
<path fill="#E5E5E5" opacity="1.000000" stroke="none" 
	d="
M238.613861,325.525635 
	C238.229904,325.790558 237.828918,325.645172 237.217957,325.255615 
	C237.537613,325.046051 238.067245,325.080658 238.613861,325.525635 
z"/>
<path fill="#ABABAB" opacity="1.000000" stroke="none" 
	d="
M209.969345,261.703613 
	C209.690155,262.001862 209.461578,261.924591 209.149902,261.625061 
	C209.358963,261.453461 209.676666,261.428528 209.969345,261.703613 
z"/>
<path fill="#EAEAEA" opacity="1.000000" stroke="none" 
	d="
M303.859314,162.036682 
	C304.302917,162.410385 304.374573,162.780823 304.373352,163.428604 
	C303.385925,163.873962 302.471375,164.041946 301.278442,164.104980 
	C301.000000,164.000000 300.997559,163.997559 300.997559,163.997559 
	C301.827515,163.342850 302.657471,162.688126 303.859314,162.036682 
z"/>
<path fill="#F1F1F1" opacity="1.000000" stroke="none" 
	d="
M298.802643,150.922852 
	C299.459106,151.383759 299.792847,151.852585 300.188538,152.609467 
	C299.717041,152.933609 299.183594,152.969711 298.247070,153.026596 
	C297.420258,152.730759 296.996521,152.414139 296.572784,152.097534 
	C297.208496,151.708618 297.844208,151.319702 298.802643,150.922852 
z"/>
<path fill="#F1F1F1" opacity="1.000000" stroke="none" 
	d="
M297.380798,160.999664 
	C297.017395,160.568649 296.994843,160.129044 296.964844,159.359604 
	C297.800354,159.308289 298.643402,159.586807 299.486420,159.865326 
	C298.898163,160.240585 298.309906,160.615829 297.380798,160.999664 
z"/>
<path fill="#F1F1F1" opacity="1.000000" stroke="none" 
	d="
M297.087646,158.743958 
	C296.639679,158.243668 296.318878,157.457916 296.018311,156.332916 
	C296.430664,156.815277 296.822723,157.636887 297.087646,158.743958 
z"/>
<path fill="#EAEAEA" opacity="1.000000" stroke="none" 
	d="
M301.000702,164.001160 
	C300.390228,164.329544 299.779022,164.656769 299.167847,164.983994 
	C299.080566,164.753326 298.993286,164.522659 298.906006,164.291992 
	C299.407043,164.193359 299.908081,164.094742 300.703339,163.996826 
	C300.997559,163.997559 301.000000,164.000000 301.000702,164.001160 
z"/>
<path fill="#000000" opacity="1.000000" stroke="none" 
	d="
M285.408752,251.736115 
	C285.561523,251.858627 285.582611,252.069519 285.603699,252.280426 
	C285.494812,252.128448 285.385956,251.976486 285.408752,251.736115 
z"/>
<path fill="#262626" opacity="1.000000" stroke="none" 
	d="
M355.951599,267.028961 
	C356.588348,266.939697 356.969360,266.986389 357.638977,267.051270 
	C358.263519,267.378510 358.599487,267.687531 358.988861,268.645386 
	C358.531342,269.892303 358.020416,270.490417 357.509460,271.088531 
	C356.788361,270.865875 356.067291,270.643188 355.129150,270.109589 
	C355.173401,268.920776 355.434662,268.042847 355.951599,267.028961 
z"/>
<path fill="#000000" opacity="1.000000" stroke="none" 
	d="
M357.794678,271.473389 
	C358.020416,270.490417 358.531342,269.892303 359.044312,268.868927 
	C359.549561,268.869568 360.299988,269.201294 360.505524,269.740601 
	C360.961243,270.936493 361.143555,272.236603 361.437378,273.494202 
	C360.318237,272.948883 359.199066,272.403564 357.794678,271.473389 
z"/>
<path fill="#070707" opacity="1.000000" stroke="none" 
	d="
M172.019745,214.939743 
	C171.969711,217.580200 172.096695,219.766113 171.837967,221.905396 
	C170.883484,229.797745 166.034607,233.833084 158.136627,233.578079 
	C150.978790,233.346970 143.818069,233.206192 136.658905,233.014404 
	C136.513153,233.010498 136.371048,232.869568 135.768402,232.546890 
	C135.768402,221.280853 135.768402,209.764465 135.768402,197.885574 
	C144.846390,197.885574 153.811279,197.742599 162.768387,197.944580 
	C167.395645,198.048920 171.896606,203.217972 172.008652,207.966736 
	C172.059723,210.131317 172.018860,212.298050 172.019745,214.939743 
z"/>
</svg>